# Blender 5.2.2 LTS
# www.blender.org
mtllib 龙卷风底座.mtl
o 柱体
v -0.613158 0.000000 -0.789960
v -1.624133 1.000000 0.391558
v -0.387808 0.000000 -0.921740
v -1.670135 1.000000 -0.042141
v -0.136030 0.000000 -0.990705
v -1.602319 1.000000 -0.472968
v 0.125018 0.000000 -0.992154
v -1.425309 1.000000 -0.871562
v 0.377547 0.000000 -0.925991
v -1.151166 1.000000 -1.210762
v 0.604346 0.000000 -0.796722
v -0.798572 1.000000 -1.467450
v 0.789960 0.000000 -0.613158
v -0.391558 1.000000 -1.624133
v 0.921740 0.000000 -0.387808
v 0.042141 1.000000 -1.670135
v 0.990705 0.000000 -0.136030
v 0.472968 1.000000 -1.602319
v 0.992154 0.000000 0.125018
v 0.871562 1.000000 -1.425309
v 0.925991 0.000000 0.377547
v 1.210762 1.000000 -1.151166
v 0.796722 0.000000 0.604346
v 1.467450 1.000000 -0.798572
v 0.613158 0.000000 0.789960
v 1.624133 1.000000 -0.391558
v 0.387808 0.000000 0.921740
v 1.670135 1.000000 0.042141
v 0.136030 0.000000 0.990705
v 1.602319 1.000000 0.472968
v -0.125018 0.000000 0.992154
v 1.425309 1.000000 0.871562
v -0.377547 0.000000 0.925991
v 1.151165 1.000000 1.210762
v -0.604346 0.000000 0.796722
v 0.798572 1.000000 1.467450
v -0.789960 0.000000 0.613158
v 0.391558 1.000000 1.624133
v -0.921740 0.000000 0.387808
v -0.042141 1.000000 1.670135
v -0.990705 0.000000 0.136030
v -0.472968 1.000000 1.602319
v -0.992154 0.000000 -0.125018
v -0.871562 1.000000 1.425309
v -0.925991 0.000000 -0.377547
v -1.210762 1.000000 1.151166
v -0.796722 0.000000 -0.604346
v -1.467450 1.000000 0.798572
v -0.916413 0.193861 -0.661154
v -1.200493 0.393861 -0.396096
v -1.395839 0.593861 -0.082626
v -1.514230 0.793861 0.235384
v -1.523556 0.793861 -0.164548
v -1.326892 0.593861 -0.441080
v -1.057070 0.393861 -0.693310
v -0.714068 0.193861 -0.875811
v -1.429054 0.793861 -0.553266
v -1.167520 0.593861 -0.769476
v -0.841609 0.393861 -0.943276
v -0.463060 0.193861 -1.030782
v -1.237164 0.793861 -0.904281
v -0.928582 0.593861 -1.045433
v -0.568794 0.393861 -1.128959
v -0.180496 0.193861 -1.115508
v -0.960964 0.793861 -1.193670
v -0.626364 0.593861 -1.250145
v -0.257217 0.393861 -1.237705
v 0.114369 0.193861 -1.124214
v -0.619276 0.793861 -1.401712
v -0.281459 0.593861 -1.369663
v 0.071889 0.393861 -1.262104
v 0.401440 0.193861 -1.056306
v -0.235384 0.793861 -1.514230
v 0.082626 0.593861 -1.395839
v 0.396096 0.393861 -1.200492
v 0.661154 0.193861 -0.916413
v 0.164548 0.793861 -1.523556
v 0.441080 0.593861 -1.326892
v 0.693310 0.393861 -1.057070
v 0.875811 0.193861 -0.714068
v 0.553266 0.793861 -1.429054
v 0.769476 0.593861 -1.167520
v 0.943276 0.393861 -0.841609
v 1.030782 0.193861 -0.463060
v 0.904281 0.793861 -1.237164
v 1.045433 0.593861 -0.928582
v 1.128959 0.393861 -0.568794
v 1.115508 0.193861 -0.180496
v 1.193670 0.793861 -0.960964
v 1.250145 0.593861 -0.626364
v 1.237705 0.393861 -0.257217
v 1.124214 0.193861 0.114369
v 1.401712 0.793861 -0.619276
v 1.369663 0.593861 -0.281460
v 1.262104 0.393861 0.071889
v 1.056306 0.193861 0.401440
v 1.514230 0.793861 -0.235384
v 1.395839 0.593861 0.082626
v 1.200492 0.393861 0.396096
v 0.916413 0.193861 0.661154
v 1.523556 0.793861 0.164548
v 1.326892 0.593861 0.441080
v 1.057070 0.393861 0.693310
v 0.714068 0.193861 0.875811
v 1.429054 0.793861 0.553266
v 1.167520 0.593861 0.769476
v 0.841609 0.393861 0.943276
v 0.463060 0.193861 1.030782
v 1.237164 0.793861 0.904281
v 0.928582 0.593861 1.045433
v 0.568794 0.393861 1.128959
v 0.180496 0.193861 1.115508
v 0.960964 0.793861 1.193670
v 0.626364 0.593861 1.250145
v 0.257217 0.393861 1.237705
v -0.114369 0.193861 1.124214
v 0.619275 0.793861 1.401712
v 0.281459 0.593861 1.369662
v -0.071889 0.393861 1.262104
v -0.401440 0.193861 1.056306
v 0.235384 0.793861 1.514230
v -0.082626 0.593861 1.395839
v -0.396096 0.393861 1.200492
v -0.661154 0.193861 0.916413
v -0.164548 0.793861 1.523556
v -0.441080 0.593861 1.326892
v -0.693310 0.393861 1.057070
v -0.875811 0.193861 0.714068
v -0.553266 0.793861 1.429054
v -0.769476 0.593861 1.167520
v -0.943276 0.393861 0.841609
v -1.030782 0.193861 0.463060
v -0.904281 0.793861 1.237164
v -1.045433 0.593861 0.928582
v -1.128959 0.393861 0.568794
v -1.115508 0.193861 0.180496
v -1.193670 0.793861 0.960964
v -1.250145 0.593861 0.626364
v -1.237705 0.393861 0.257217
v -1.124214 0.193861 -0.114369
v -1.401712 0.793861 0.619275
v -1.369662 0.593861 0.281459
v -1.262104 0.393861 -0.071889
v -1.056306 0.193861 -0.401440
vn -0.5544 -0.5597 -0.6160
vn -0.8071 -0.5570 0.1957
vn -0.3760 -0.5597 -0.7384
vn -0.8303 -0.5570 -0.0199
vn -0.1721 -0.5597 -0.8106
vn -0.7968 -0.5570 -0.2341
vn 0.0436 -0.5597 -0.8275
vn -0.7091 -0.5570 -0.4324
vn 0.2563 -0.5597 -0.7881
vn -0.5730 -0.5570 -0.6012
vn 0.4515 -0.5597 -0.6949
vn -0.3979 -0.5570 -0.7290
vn 0.6160 -0.5597 -0.5544
vn -0.1957 -0.5570 -0.8071
vn 0.7384 -0.5597 -0.3760
vn 0.0199 -0.5570 -0.8303
vn 0.8106 -0.5597 -0.1721
vn 0.2341 -0.5570 -0.7968
vn 0.8275 -0.5597 0.0436
vn 0.4324 -0.5570 -0.7091
vn 0.7881 -0.5597 0.2563
vn 0.6012 -0.5570 -0.5730
vn 0.6949 -0.5597 0.4515
vn 0.7290 -0.5570 -0.3979
vn 0.5544 -0.5597 0.6160
vn 0.8071 -0.5570 -0.1957
vn 0.3760 -0.5597 0.7384
vn 0.8303 -0.5570 0.0199
vn 0.1721 -0.5597 0.8106
vn 0.7968 -0.5570 0.2341
vn -0.0436 -0.5597 0.8275
vn 0.7091 -0.5570 0.4324
vn -0.2563 -0.5597 0.7881
vn 0.5730 -0.5570 0.6012
vn -0.4515 -0.5597 0.6949
vn 0.3979 -0.5570 0.7290
vn -0.6160 -0.5597 0.5544
vn 0.1957 -0.5570 0.8071
vn -0.7384 -0.5597 0.3760
vn -0.0199 -0.5570 0.8303
vn -0.8106 -0.5597 0.1721
vn -0.2341 -0.5570 0.7968
vn -0.8275 -0.5597 -0.0436
vn -0.4324 -0.5570 0.7091
vn -0.7881 -0.5597 -0.2563
vn -0.6012 -0.5570 0.5730
vn -0.6949 -0.5597 -0.4515
vn -0.7290 -0.5570 0.3979
vn -0.6765 -0.5609 -0.4772
vn -0.7858 -0.5603 -0.2619
vn -0.8276 -0.5588 -0.0522
vn -0.8217 -0.5576 0.1179
vn -0.8242 -0.5576 -0.0988
vn -0.7859 -0.5588 -0.2646
vn -0.6913 -0.5603 -0.4563
vn -0.5300 -0.5609 -0.6360
vn -0.7706 -0.5576 -0.3088
vn -0.6907 -0.5588 -0.4590
vn -0.5496 -0.5603 -0.6197
vn -0.3473 -0.5609 -0.7515
vn -0.6644 -0.5576 -0.4977
vn -0.5483 -0.5588 -0.6221
vn -0.3705 -0.5603 -0.7408
vn -0.1410 -0.5609 -0.8158
vn -0.5129 -0.5576 -0.6527
vn -0.3686 -0.5588 -0.7428
vn -0.1661 -0.5603 -0.8115
vn 0.0750 -0.5609 -0.8245
vn -0.3265 -0.5576 -0.7632
vn -0.1638 -0.5588 -0.8129
vn 0.0495 -0.5603 -0.8268
vn 0.2858 -0.5609 -0.7770
vn -0.1179 -0.5576 -0.8217
vn 0.0522 -0.5588 -0.8276
vn 0.2619 -0.5603 -0.7858
vn 0.4772 -0.5609 -0.6765
vn 0.0988 -0.5576 -0.8242
vn 0.2646 -0.5588 -0.7859
vn 0.4563 -0.5603 -0.6913
vn 0.6360 -0.5609 -0.5300
vn 0.3088 -0.5576 -0.7706
vn 0.4590 -0.5588 -0.6907
vn 0.6197 -0.5603 -0.5496
vn 0.7515 -0.5609 -0.3473
vn 0.4977 -0.5576 -0.6644
vn 0.6221 -0.5588 -0.5483
vn 0.7408 -0.5603 -0.3705
vn 0.8158 -0.5609 -0.1410
vn 0.6527 -0.5576 -0.5129
vn 0.7428 -0.5588 -0.3686
vn 0.8115 -0.5603 -0.1661
vn 0.8245 -0.5609 0.0750
vn 0.7632 -0.5576 -0.3265
vn 0.8129 -0.5588 -0.1638
vn 0.8268 -0.5603 0.0495
vn 0.7770 -0.5609 0.2858
vn 0.8217 -0.5576 -0.1179
vn 0.8276 -0.5588 0.0522
vn 0.7858 -0.5603 0.2619
vn 0.6765 -0.5609 0.4772
vn 0.8242 -0.5576 0.0988
vn 0.7859 -0.5588 0.2646
vn 0.6913 -0.5603 0.4563
vn 0.5300 -0.5609 0.6360
vn 0.7706 -0.5576 0.3088
vn 0.6907 -0.5588 0.4590
vn 0.5496 -0.5603 0.6197
vn 0.3473 -0.5609 0.7515
vn 0.6644 -0.5576 0.4977
vn 0.5483 -0.5588 0.6221
vn 0.3705 -0.5603 0.7408
vn 0.1410 -0.5609 0.8158
vn 0.5129 -0.5576 0.6527
vn 0.3686 -0.5588 0.7428
vn 0.1661 -0.5603 0.8115
vn -0.0750 -0.5609 0.8245
vn 0.3265 -0.5576 0.7632
vn 0.1638 -0.5588 0.8129
vn -0.0495 -0.5603 0.8268
vn -0.2858 -0.5609 0.7770
vn 0.1179 -0.5576 0.8217
vn -0.0522 -0.5588 0.8276
vn -0.2619 -0.5603 0.7858
vn -0.4772 -0.5609 0.6765
vn -0.0988 -0.5576 0.8242
vn -0.2646 -0.5588 0.7859
vn -0.4563 -0.5603 0.6913
vn -0.6360 -0.5609 0.5300
vn -0.3088 -0.5576 0.7706
vn -0.4590 -0.5588 0.6907
vn -0.6197 -0.5603 0.5496
vn -0.7515 -0.5609 0.3473
vn -0.4977 -0.5576 0.6644
vn -0.6221 -0.5588 0.5483
vn -0.7408 -0.5603 0.3705
vn -0.8158 -0.5609 0.1410
vn -0.6527 -0.5576 0.5129
vn -0.7428 -0.5588 0.3686
vn -0.8115 -0.5603 0.1661
vn -0.8245 -0.5609 -0.0750
vn -0.7632 -0.5576 0.3265
vn -0.8129 -0.5588 0.1638
vn -0.8268 -0.5603 -0.0495
vn -0.7770 -0.5609 -0.2858
vt 1.000000 0.793861
vt 1.000000 1.000000
vt 0.958333 1.000000
vt 0.958333 0.793862
vt 0.916667 1.000000
vt 0.916667 0.793862
vt 0.875000 1.000000
vt 0.875000 0.793861
vt 0.833333 1.000000
vt 0.833333 0.793861
vt 0.791667 1.000000
vt 0.791667 0.793861
vt 0.750000 1.000000
vt 0.750000 0.793861
vt 0.708333 1.000000
vt 0.708333 0.793861
vt 0.666667 1.000000
vt 0.666667 0.793861
vt 0.625000 1.000000
vt 0.625000 0.793861
vt 0.583333 1.000000
vt 0.583333 0.793862
vt 0.541666 1.000000
vt 0.541666 0.793861
vt 0.500000 1.000000
vt 0.500000 0.793861
vt 0.458333 1.000000
vt 0.458333 0.793861
vt 0.416666 1.000000
vt 0.416667 0.793862
vt 0.375000 1.000000
vt 0.375000 0.793861
vt 0.333333 1.000000
vt 0.333333 0.793861
vt 0.291667 1.000000
vt 0.291667 0.793861
vt 0.250000 1.000000
vt 0.250000 0.793861
vt 0.208333 1.000000
vt 0.208333 0.793861
vt 0.166666 1.000000
vt 0.166667 0.793861
vt 0.125000 1.000000
vt 0.125000 0.793861
vt 0.083333 1.000000
vt 0.083333 0.793862
vt 0.041666 1.000000
vt 0.041666 0.793862
vt -0.000000 1.000000
vt -0.000000 0.793861
vt 0.041666 0.000000
vt 0.041666 0.193861
vt -0.000000 0.193861
vt -0.000000 0.000000
vt 0.041666 0.393861
vt -0.000000 0.393861
vt 0.041666 0.593861
vt -0.000000 0.593861
vt 0.083333 0.000000
vt 0.083333 0.193861
vt 0.083333 0.393861
vt 0.083333 0.593861
vt 0.125000 0.000000
vt 0.125000 0.193861
vt 0.125000 0.393861
vt 0.125000 0.593861
vt 0.166666 0.000000
vt 0.166666 0.193861
vt 0.166666 0.393861
vt 0.166666 0.593861
vt 0.208333 0.000000
vt 0.208333 0.193861
vt 0.208333 0.393861
vt 0.208333 0.593861
vt 0.250000 0.000000
vt 0.250000 0.193861
vt 0.250000 0.393861
vt 0.250000 0.593861
vt 0.291667 0.000000
vt 0.291666 0.193861
vt 0.291667 0.393861
vt 0.291667 0.593861
vt 0.333333 0.000000
vt 0.333333 0.193861
vt 0.333333 0.393861
vt 0.333333 0.593861
vt 0.375000 0.000000
vt 0.375000 0.193861
vt 0.375000 0.393861
vt 0.375000 0.593861
vt 0.416666 0.000000
vt 0.416666 0.193861
vt 0.416666 0.393861
vt 0.416667 0.593861
vt 0.458333 0.000000
vt 0.458333 0.193861
vt 0.458333 0.393861
vt 0.458333 0.593861
vt 0.500000 0.000000
vt 0.500000 0.193861
vt 0.500000 0.393861
vt 0.500000 0.593861
vt 0.541666 0.000000
vt 0.541666 0.193861
vt 0.541666 0.393861
vt 0.541666 0.593861
vt 0.583333 0.000000
vt 0.583333 0.193861
vt 0.583333 0.393861
vt 0.583333 0.593861
vt 0.625000 0.000000
vt 0.625000 0.193861
vt 0.625000 0.393861
vt 0.625000 0.593861
vt 0.666667 0.000000
vt 0.666667 0.193861
vt 0.666667 0.393861
vt 0.666667 0.593861
vt 0.708333 0.000000
vt 0.708333 0.193861
vt 0.708333 0.393861
vt 0.708333 0.593861
vt 0.750000 0.000000
vt 0.750000 0.193861
vt 0.750000 0.393861
vt 0.750000 0.593861
vt 0.791667 0.000000
vt 0.791667 0.193861
vt 0.791667 0.393861
vt 0.791667 0.593861
vt 0.833333 0.000000
vt 0.833333 0.193861
vt 0.833333 0.393861
vt 0.833333 0.593861
vt 0.875000 0.000000
vt 0.875000 0.193861
vt 0.875000 0.393861
vt 0.875000 0.593861
vt 0.916667 0.000000
vt 0.916667 0.193861
vt 0.916667 0.393861
vt 0.916667 0.593861
vt 0.958333 0.000000
vt 0.958333 0.193861
vt 0.958333 0.393861
vt 0.958333 0.593862
vt 1.000000 0.000000
vt 1.000000 0.193861
vt 1.000000 0.393861
vt 1.000000 0.593861
s 1
f 52/1/52 2/2/2 4/3/4 53/4/53
f 53/4/53 4/3/4 6/5/6 57/6/57
f 57/6/57 6/5/6 8/7/8 61/8/61
f 61/8/61 8/7/8 10/9/10 65/10/65
f 65/10/65 10/9/10 12/11/12 69/12/69
f 69/12/69 12/11/12 14/13/14 73/14/73
f 73/14/73 14/13/14 16/15/16 77/16/77
f 77/16/77 16/15/16 18/17/18 81/18/81
f 81/18/81 18/17/18 20/19/20 85/20/85
f 85/20/85 20/19/20 22/21/22 89/22/89
f 89/22/89 22/21/22 24/23/24 93/24/93
f 93/24/93 24/23/24 26/25/26 97/26/97
f 97/26/97 26/25/26 28/27/28 101/28/101
f 101/28/101 28/27/28 30/29/30 105/30/105
f 105/30/105 30/29/30 32/31/32 109/32/109
f 109/32/109 32/31/32 34/33/34 113/34/113
f 113/34/113 34/33/34 36/35/36 117/36/117
f 117/36/117 36/35/36 38/37/38 121/38/121
f 121/38/121 38/37/38 40/39/40 125/40/125
f 125/40/125 40/39/40 42/41/42 129/42/129
f 129/42/129 42/41/42 44/43/44 133/44/133
f 133/44/133 44/43/44 46/45/46 137/46/137
f 137/46/137 46/45/46 48/47/48 141/48/141
f 141/48/141 48/47/48 2/49/2 52/50/52
f 47/51/47 144/52/144 49/53/49 1/54/1
f 144/52/144 143/55/143 50/56/50 49/53/49
f 143/55/143 142/57/142 51/58/51 50/56/50
f 142/57/142 141/48/141 52/50/52 51/58/51
f 45/59/45 140/60/140 144/52/144 47/51/47
f 140/60/140 139/61/139 143/55/143 144/52/144
f 139/61/139 138/62/138 142/57/142 143/55/143
f 138/62/138 137/46/137 141/48/141 142/57/142
f 43/63/43 136/64/136 140/60/140 45/59/45
f 136/64/136 135/65/135 139/61/139 140/60/140
f 135/65/135 134/66/134 138/62/138 139/61/139
f 134/66/134 133/44/133 137/46/137 138/62/138
f 41/67/41 132/68/132 136/64/136 43/63/43
f 132/68/132 131/69/131 135/65/135 136/64/136
f 131/69/131 130/70/130 134/66/134 135/65/135
f 130/70/130 129/42/129 133/44/133 134/66/134
f 39/71/39 128/72/128 132/68/132 41/67/41
f 128/72/128 127/73/127 131/69/131 132/68/132
f 127/73/127 126/74/126 130/70/130 131/69/131
f 126/74/126 125/40/125 129/42/129 130/70/130
f 37/75/37 124/76/124 128/72/128 39/71/39
f 124/76/124 123/77/123 127/73/127 128/72/128
f 123/77/123 122/78/122 126/74/126 127/73/127
f 122/78/122 121/38/121 125/40/125 126/74/126
f 35/79/35 120/80/120 124/76/124 37/75/37
f 120/80/120 119/81/119 123/77/123 124/76/124
f 119/81/119 118/82/118 122/78/122 123/77/123
f 118/82/118 117/36/117 121/38/121 122/78/122
f 33/83/33 116/84/116 120/80/120 35/79/35
f 116/84/116 115/85/115 119/81/119 120/80/120
f 115/85/115 114/86/114 118/82/118 119/81/119
f 114/86/114 113/34/113 117/36/117 118/82/118
f 31/87/31 112/88/112 116/84/116 33/83/33
f 112/88/112 111/89/111 115/85/115 116/84/116
f 111/89/111 110/90/110 114/86/114 115/85/115
f 110/90/110 109/32/109 113/34/113 114/86/114
f 29/91/29 108/92/108 112/88/112 31/87/31
f 108/92/108 107/93/107 111/89/111 112/88/112
f 107/93/107 106/94/106 110/90/110 111/89/111
f 106/94/106 105/30/105 109/32/109 110/90/110
f 27/95/27 104/96/104 108/92/108 29/91/29
f 104/96/104 103/97/103 107/93/107 108/92/108
f 103/97/103 102/98/102 106/94/106 107/93/107
f 102/98/102 101/28/101 105/30/105 106/94/106
f 25/99/25 100/100/100 104/96/104 27/95/27
f 100/100/100 99/101/99 103/97/103 104/96/104
f 99/101/99 98/102/98 102/98/102 103/97/103
f 98/102/98 97/26/97 101/28/101 102/98/102
f 23/103/23 96/104/96 100/100/100 25/99/25
f 96/104/96 95/105/95 99/101/99 100/100/100
f 95/105/95 94/106/94 98/102/98 99/101/99
f 94/106/94 93/24/93 97/26/97 98/102/98
f 21/107/21 92/108/92 96/104/96 23/103/23
f 92/108/92 91/109/91 95/105/95 96/104/96
f 91/109/91 90/110/90 94/106/94 95/105/95
f 90/110/90 89/22/89 93/24/93 94/106/94
f 19/111/19 88/112/88 92/108/92 21/107/21
f 88/112/88 87/113/87 91/109/91 92/108/92
f 87/113/87 86/114/86 90/110/90 91/109/91
f 86/114/86 85/20/85 89/22/89 90/110/90
f 17/115/17 84/116/84 88/112/88 19/111/19
f 84/116/84 83/117/83 87/113/87 88/112/88
f 83/117/83 82/118/82 86/114/86 87/113/87
f 82/118/82 81/18/81 85/20/85 86/114/86
f 15/119/15 80/120/80 84/116/84 17/115/17
f 80/120/80 79/121/79 83/117/83 84/116/84
f 79/121/79 78/122/78 82/118/82 83/117/83
f 78/122/78 77/16/77 81/18/81 82/118/82
f 13/123/13 76/124/76 80/120/80 15/119/15
f 76/124/76 75/125/75 79/121/79 80/120/80
f 75/125/75 74/126/74 78/122/78 79/121/79
f 74/126/74 73/14/73 77/16/77 78/122/78
f 11/127/11 72/128/72 76/124/76 13/123/13
f 72/128/72 71/129/71 75/125/75 76/124/76
f 71/129/71 70/130/70 74/126/74 75/125/75
f 70/130/70 69/12/69 73/14/73 74/126/74
f 9/131/9 68/132/68 72/128/72 11/127/11
f 68/132/68 67/133/67 71/129/71 72/128/72
f 67/133/67 66/134/66 70/130/70 71/129/71
f 66/134/66 65/10/65 69/12/69 70/130/70
f 7/135/7 64/136/64 68/132/68 9/131/9
f 64/136/64 63/137/63 67/133/67 68/132/68
f 63/137/63 62/138/62 66/134/66 67/133/67
f 62/138/62 61/8/61 65/10/65 66/134/66
f 5/139/5 60/140/60 64/136/64 7/135/7
f 60/140/60 59/141/59 63/137/63 64/136/64
f 59/141/59 58/142/58 62/138/62 63/137/63
f 58/142/58 57/6/57 61/8/61 62/138/62
f 3/143/3 56/144/56 60/140/60 5/139/5
f 56/144/56 55/145/55 59/141/59 60/140/60
f 55/145/55 54/146/54 58/142/58 59/141/59
f 54/146/54 53/4/53 57/6/57 58/142/58
f 1/147/1 49/148/49 56/144/56 3/143/3
f 49/148/49 50/149/50 55/145/55 56/144/56
f 50/149/50 51/150/51 54/146/54 55/145/55
f 51/150/51 52/1/52 53/4/53 54/146/54
