# Blender 5.2.2 LTS
# www.blender.org
mtllib 龙卷风.mtl
o 柱体
v 0.050568 0.000000 -1.642900
v 0.000000 12.000000 -5.991383
v 0.475782 0.000000 -1.586919
v 1.550684 12.000000 -5.787231
v 0.872018 0.000000 -1.422793
v 2.995692 12.000000 -5.188690
v 1.212273 0.000000 -1.161705
v 4.236547 12.000000 -4.236547
v 1.473361 0.000000 -0.821450
v 5.188690 12.000000 -2.995692
v 1.637487 0.000000 -0.425214
v 5.787231 12.000000 -1.550684
v 1.693468 0.000000 -0.000000
v 5.991383 12.000000 -0.000000
v 1.637487 0.000000 0.425214
v 5.787231 12.000000 1.550684
v 1.473361 0.000000 0.821450
v 5.188690 12.000000 2.995691
v 1.212273 0.000000 1.161705
v 4.236547 12.000000 4.236547
v 0.872018 0.000000 1.422793
v 2.995692 12.000000 5.188690
v 0.475782 0.000000 1.586919
v 1.550684 12.000000 5.787231
v 0.050568 0.000000 1.642900
v 0.000000 12.000000 5.991383
v -0.374646 0.000000 1.586919
v -1.550684 12.000000 5.787231
v -0.770882 0.000000 1.422793
v -2.995692 12.000000 5.188690
v -1.111138 0.000000 1.161705
v -4.236547 12.000000 4.236547
v -1.372225 0.000000 0.821450
v -5.188690 12.000000 2.995691
v -1.536351 0.000000 0.425214
v -5.787231 12.000000 1.550684
v -1.592332 0.000000 -0.000000
v -5.991383 12.000000 -0.000000
v -1.536351 0.000000 -0.425214
v -5.787231 12.000000 -1.550684
v -1.372225 0.000000 -0.821450
v -5.188690 12.000000 -2.995692
v -1.111138 0.000000 -1.161705
v -4.236547 12.000000 -4.236547
v -0.770882 0.000000 -1.422793
v -2.995692 12.000000 -5.188690
v -0.374646 0.000000 -1.586919
v -1.550684 12.000000 -5.787231
v 0.394617 1.003650 -1.226720
v 0.837910 2.003650 -1.452616
v 0.922981 3.003650 -1.678512
v 0.477147 4.003650 -1.904408
v -0.215629 5.003650 -2.130304
v -0.756131 6.003650 -2.356200
v -0.860146 6.922590 -2.623987
v -0.800522 7.736011 -2.996045
v -0.639069 8.547434 -3.495819
v -0.388431 9.460476 -4.146716
v -0.105219 10.578757 -4.972142
v 1.181666 10.578757 -4.802721
v 0.684818 9.460476 -4.005420
v 0.265715 8.547434 -3.376701
v -0.025088 7.736011 -2.893957
v -0.181008 6.922590 -2.534577
v -0.146649 6.003650 -2.275914
v 0.332271 5.003650 -2.057715
v 0.964238 4.003650 -1.839517
v 1.351664 3.003650 -1.621318
v 1.211416 2.003650 -1.403119
v 0.712115 1.003650 -1.184921
v 2.380852 10.578757 -4.306002
v 1.684927 9.460476 -3.591161
v 1.108840 8.547434 -3.027468
v 0.697501 7.736011 -2.594651
v 0.451848 6.922590 -2.272440
v 0.421299 6.003650 -2.040529
v 0.844796 5.003650 -1.844898
v 1.417839 4.003650 -1.649266
v 1.755841 3.003650 -1.453634
v 1.560363 2.003650 -1.258003
v 1.007977 1.003650 -1.062371
v 3.410616 10.578757 -3.515835
v 2.543740 9.460476 -2.932171
v 1.832848 8.547434 -2.471917
v 1.318002 7.736011 -2.118524
v 0.995293 6.922590 -1.855439
v 0.909005 6.003650 -1.666085
v 1.284225 5.003650 -1.506352
v 1.810714 4.003650 -1.346620
v 2.100545 3.003650 -1.186887
v 1.859383 2.003650 -1.027155
v 1.262039 1.003650 -0.867422
v 4.200782 10.578757 -2.486071
v 3.202731 9.460476 -2.073358
v 2.388399 8.547434 -1.747910
v 1.794129 7.736011 -1.498023
v 1.412294 6.922590 -1.311994
v 1.283236 6.003650 -1.178100
v 1.619407 5.003650 -1.065152
v 2.116121 4.003650 -0.952204
v 2.367540 3.003650 -0.839256
v 2.089729 2.003650 -0.726308
v 1.456988 1.003650 -0.613360
v 4.697501 10.578757 -1.286885
v 3.616989 9.460477 -1.073249
v 2.737632 8.547434 -0.904785
v 2.093435 7.736011 -0.775434
v 1.674431 6.922590 -0.679138
v 1.518487 6.003650 -0.609829
v 1.830104 5.003650 -0.551363
v 2.305872 4.003650 -0.492897
v 2.536859 3.003650 -0.434431
v 2.234755 2.003650 -0.375965
v 1.579538 1.003650 -0.317499
v 4.866923 10.578757 -0.000000
v 3.758285 9.460476 -0.000000
v 2.856750 8.547434 -0.000000
v 2.195523 7.736011 -0.000000
v 1.763842 6.922590 -0.000000
v 1.598727 6.003650 -0.000000
v 1.901968 5.003650 -0.000000
v 2.369092 4.003650 -0.000000
v 2.592325 3.003650 -0.000000
v 2.283604 2.003650 -0.000000
v 1.621337 1.003650 -0.000000
v 4.697501 10.578757 1.286885
v 3.616989 9.460476 1.073249
v 2.737632 8.547434 0.904785
v 2.093435 7.736011 0.775434
v 1.674431 6.922590 0.679138
v 1.518487 6.003650 0.609829
v 1.830104 5.003650 0.551363
v 2.305872 4.003650 0.492897
v 2.536859 3.003650 0.434431
v 2.234755 2.003650 0.375965
v 1.579538 1.003650 0.317499
v 4.200782 10.578757 2.486071
v 3.202731 9.460476 2.073358
v 2.388399 8.547434 1.747909
v 1.794129 7.736011 1.498023
v 1.412294 6.922590 1.311994
v 1.283236 6.003650 1.178100
v 1.619407 5.003650 1.065152
v 2.116121 4.003650 0.952204
v 2.367540 3.003650 0.839256
v 2.089729 2.003650 0.726308
v 1.456988 1.003650 0.613360
v 3.410616 10.578757 3.515835
v 2.543740 9.460476 2.932171
v 1.832848 8.547434 2.471917
v 1.318002 7.736011 2.118524
v 0.995293 6.922590 1.855439
v 0.909005 6.003650 1.666085
v 1.284225 5.003650 1.506352
v 1.810714 4.003650 1.346620
v 2.100545 3.003650 1.186887
v 1.859383 2.003650 1.027155
v 1.262039 1.003650 0.867422
v 2.380852 10.578757 4.306002
v 1.684927 9.460476 3.591161
v 1.108840 8.547434 3.027468
v 0.697501 7.736011 2.594651
v 0.451848 6.922590 2.272440
v 0.421299 6.003650 2.040529
v 0.844796 5.003650 1.844898
v 1.417839 4.003650 1.649266
v 1.755841 3.003650 1.453634
v 1.560363 2.003650 1.258003
v 1.007977 1.003650 1.062371
v 1.181666 10.578757 4.802721
v 0.684818 9.460476 4.005420
v 0.265715 8.547434 3.376701
v -0.025088 7.736011 2.893957
v -0.181008 6.922590 2.534577
v -0.146649 6.003650 2.275914
v 0.332271 5.003650 2.057715
v 0.964238 4.003650 1.839517
v 1.351664 3.003650 1.621318
v 1.211416 2.003650 1.403119
v 0.712115 1.003650 1.184921
v -0.105219 10.578757 4.972142
v -0.388431 9.460476 4.146716
v -0.639069 8.547434 3.495819
v -0.800522 7.736011 2.996045
v -0.860146 6.922590 2.623987
v -0.756131 6.003650 2.356200
v -0.215629 5.003650 2.130304
v 0.477147 4.003650 1.904408
v 0.922981 3.003650 1.678512
v 0.837910 2.003650 1.452616
v 0.394617 1.003650 1.226720
v -1.392104 10.578757 4.802721
v -1.461680 9.460476 4.005420
v -1.543854 8.547434 3.376701
v -1.575956 7.736011 2.893957
v -1.539284 6.922590 2.534577
v -1.365613 6.003650 2.275914
v -0.761593 5.003650 2.057715
v -0.006467 4.003650 1.839517
v 0.498737 3.003650 1.621318
v 0.465474 2.003650 1.403119
v 0.077118 1.003650 1.184921
v -2.591290 10.578757 4.306002
v -2.461789 9.460476 3.591161
v -2.386979 8.547434 3.027468
v -2.298545 7.736011 2.594651
v -2.172139 6.922590 2.272440
v -1.933561 6.003650 2.040529
v -1.268453 5.003650 1.844898
v -0.451484 4.003650 1.649266
v 0.105525 3.003650 1.453634
v 0.119221 2.003650 1.258003
v -0.218743 1.003650 1.062371
v -3.621054 10.578757 3.515835
v -3.320601 9.460476 2.932171
v -3.110986 8.547434 2.471917
v -2.919046 7.736011 2.118524
v -2.715585 6.922590 1.855439
v -2.421269 6.003650 1.666085
v -1.701699 5.003650 1.506352
v -0.827911 4.003650 1.346620
v -0.226552 3.003650 1.186887
v -0.177502 2.003650 1.027155
v -0.472805 1.003650 0.867422
v -4.411221 10.578757 2.486071
v -3.979592 9.460476 2.073358
v -3.666538 8.547434 1.747909
v -3.395174 7.736011 1.498023
v -3.132586 6.922590 1.311994
v -2.795501 6.003650 1.178100
v -2.034518 5.003650 1.065152
v -1.112563 4.003650 0.952204
v -0.475564 3.003650 0.839256
v -0.404644 2.003650 0.726308
v -0.667754 1.003650 0.613360
v -4.907940 10.578757 1.286885
v -4.393851 9.460476 1.073249
v -4.015770 8.547434 0.904785
v -3.694479 7.736011 0.775434
v -3.394722 6.922590 0.679138
v -3.030751 6.003650 0.609829
v -2.245318 5.003650 0.551363
v -1.289359 4.003650 0.492897
v -0.628041 3.003650 0.434431
v -0.546935 2.003650 0.375965
v -0.790304 1.003650 0.317499
v -5.077362 10.578757 -0.000000
v -4.535147 9.460476 -0.000000
v -4.134888 8.547434 -0.000000
v -3.796567 7.736011 -0.000000
v -3.484133 6.922590 -0.000000
v -3.110992 6.003650 -0.000000
v -2.317220 5.003650 -0.000000
v -1.349061 4.003650 -0.000000
v -0.678666 3.003650 -0.000000
v -0.595454 2.003650 -0.000000
v -0.832103 1.003650 -0.000000
v -4.907940 10.578757 -1.286885
v -4.393850 9.460477 -1.073249
v -4.015770 8.547434 -0.904785
v -3.694479 7.736011 -0.775434
v -3.394722 6.922590 -0.679138
v -3.030751 6.003650 -0.609829
v -2.245318 5.003650 -0.551363
v -1.289359 4.003650 -0.492897
v -0.628041 3.003650 -0.434431
v -0.546935 2.003650 -0.375965
v -0.790304 1.003650 -0.317499
v -4.411221 10.578757 -2.486071
v -3.979592 9.460476 -2.073358
v -3.666538 8.547434 -1.747910
v -3.395174 7.736011 -1.498023
v -3.132586 6.922590 -1.311994
v -2.795501 6.003650 -1.178100
v -2.034518 5.003650 -1.065152
v -1.112563 4.003650 -0.952204
v -0.475564 3.003650 -0.839256
v -0.404644 2.003650 -0.726308
v -0.667754 1.003650 -0.613360
v -3.621054 10.578757 -3.515835
v -3.320601 9.460476 -2.932171
v -3.110986 8.547434 -2.471917
v -2.919046 7.736011 -2.118524
v -2.715585 6.922590 -1.855439
v -2.421269 6.003650 -1.666085
v -1.701699 5.003650 -1.506352
v -0.827911 4.003650 -1.346620
v -0.226552 3.003650 -1.186887
v -0.177502 2.003650 -1.027155
v -0.472805 1.003650 -0.867422
v -2.591290 10.578757 -4.306002
v -2.461789 9.460476 -3.591161
v -2.386979 8.547434 -3.027468
v -2.298545 7.736011 -2.594651
v -2.172139 6.922590 -2.272440
v -1.933561 6.003650 -2.040529
v -1.268453 5.003650 -1.844898
v -0.451484 4.003650 -1.649266
v 0.105525 3.003650 -1.453634
v 0.119221 2.003650 -1.258003
v -0.218743 1.003650 -1.062371
v -1.392104 10.578757 -4.802721
v -1.461680 9.460476 -4.005420
v -1.543854 8.547434 -3.376701
v -1.575956 7.736011 -2.893957
v -1.539284 6.922590 -2.534577
v -1.365613 6.003650 -2.275914
v -0.761593 5.003650 -2.057715
v -0.006467 4.003650 -1.839517
v 0.498737 3.003650 -1.621318
v 0.465474 2.003650 -1.403119
v 0.077118 1.003650 -1.184921
v 0.644738 0.867979 -1.163972
v 0.597840 0.749269 -1.173039
v 0.564966 0.636111 -1.210152
v 0.539814 0.516555 -1.272704
v 0.517370 0.378651 -1.358088
v 0.495178 0.210449 -1.463695
v 0.935369 0.867979 -1.043589
v 0.890735 0.749269 -1.051718
v 0.867127 0.636111 -1.084993
v 0.857594 0.516555 -1.141075
v 0.856470 0.378651 -1.217628
v 0.860646 0.210449 -1.312313
v 1.184939 0.867979 -0.852087
v 1.142249 0.749269 -0.858724
v 1.126599 0.636111 -0.885893
v 1.130478 0.516555 -0.931684
v 1.147661 0.378651 -0.994189
v 1.174481 0.210449 -1.071499
v 1.376441 0.867979 -0.602516
v 1.335243 0.749269 -0.607210
v 1.325699 0.636111 -0.626421
v 1.339869 0.516555 -0.658800
v 1.371100 0.378651 -0.702998
v 1.415295 0.210449 -0.757664
v 1.496824 0.867979 -0.311885
v 1.456564 0.749269 -0.314315
v 1.450859 0.636111 -0.324259
v 1.471498 0.516555 -0.341020
v 1.511559 0.378651 -0.363899
v 1.566677 0.210449 -0.392196
v 1.537885 0.867979 -0.000000
v 1.497944 0.749269 -0.000000
v 1.493548 0.636111 -0.000000
v 1.516394 0.516555 -0.000000
v 1.559468 0.378651 -0.000000
v 1.618311 0.210449 -0.000000
v 1.496824 0.867979 0.311885
v 1.456564 0.749269 0.314315
v 1.450859 0.636111 0.324259
v 1.471498 0.516555 0.341020
v 1.511559 0.378651 0.363899
v 1.566677 0.210449 0.392196
v 1.376441 0.867979 0.602516
v 1.335243 0.749269 0.607210
v 1.325699 0.636111 0.626421
v 1.339869 0.516555 0.658800
v 1.371100 0.378651 0.702998
v 1.415295 0.210449 0.757664
v 1.184939 0.867979 0.852087
v 1.142249 0.749269 0.858724
v 1.126599 0.636111 0.885893
v 1.130478 0.516555 0.931684
v 1.147661 0.378651 0.994189
v 1.174481 0.210449 1.071499
v 0.935369 0.867979 1.043589
v 0.890735 0.749269 1.051718
v 0.867127 0.636111 1.084993
v 0.857594 0.516555 1.141075
v 0.856470 0.378651 1.217628
v 0.860646 0.210449 1.312313
v 0.644738 0.867979 1.163972
v 0.597840 0.749269 1.173039
v 0.564966 0.636111 1.210152
v 0.539814 0.516555 1.272704
v 0.517370 0.378651 1.358088
v 0.495178 0.210449 1.463695
v 0.332852 0.867979 1.205033
v 0.283525 0.749269 1.214419
v 0.240707 0.636111 1.252842
v 0.198794 0.516555 1.317600
v 0.153472 0.378651 1.405996
v 0.102982 0.210449 1.515329
v 0.020967 0.867979 1.163972
v -0.030790 0.749269 1.173039
v -0.083553 0.636111 1.210152
v -0.142226 0.516555 1.272704
v -0.210427 0.378651 1.358088
v -0.289214 0.210449 1.463695
v -0.269664 0.867979 1.043589
v -0.323685 0.749269 1.051718
v -0.385714 0.636111 1.084993
v -0.460006 0.516555 1.141075
v -0.549526 0.378651 1.217628
v -0.654683 0.210449 1.312313
v -0.519234 0.867979 0.852087
v -0.575199 0.749269 0.858724
v -0.645186 0.636111 0.885893
v -0.732890 0.516555 0.931684
v -0.840718 0.378651 0.994189
v -0.968518 0.210449 1.071499
v -0.710736 0.867979 0.602516
v -0.768193 0.749269 0.607210
v -0.844286 0.636111 0.626421
v -0.942281 0.516555 0.658800
v -1.064157 0.378651 0.702998
v -1.209332 0.210449 0.757664
v -0.831119 0.867979 0.311885
v -0.889514 0.749269 0.314315
v -0.969446 0.636111 0.324259
v -1.073910 0.516555 0.341020
v -1.204616 0.378651 0.363899
v -1.360713 0.210449 0.392196
v -0.872180 0.867979 -0.000000
v -0.930895 0.749269 -0.000000
v -1.012135 0.636111 -0.000000
v -1.118807 0.516555 -0.000000
v -1.252524 0.378651 -0.000000
v -1.412347 0.210449 -0.000000
v -0.831119 0.867979 -0.311885
v -0.889514 0.749269 -0.314315
v -0.969446 0.636111 -0.324259
v -1.073910 0.516555 -0.341020
v -1.204616 0.378651 -0.363899
v -1.360713 0.210449 -0.392196
v -0.710736 0.867979 -0.602516
v -0.768193 0.749269 -0.607210
v -0.844286 0.636111 -0.626421
v -0.942281 0.516555 -0.658800
v -1.064157 0.378651 -0.702998
v -1.209332 0.210449 -0.757664
v -0.519234 0.867979 -0.852087
v -0.575199 0.749269 -0.858724
v -0.645186 0.636111 -0.885893
v -0.732890 0.516555 -0.931684
v -0.840718 0.378651 -0.994189
v -0.968518 0.210449 -1.071499
v -0.269664 0.867979 -1.043589
v -0.323685 0.749269 -1.051718
v -0.385714 0.636111 -1.084993
v -0.460006 0.516555 -1.141075
v -0.549526 0.378651 -1.217628
v -0.654683 0.210449 -1.312313
v 0.020967 0.867979 -1.163972
v -0.030790 0.749269 -1.173039
v -0.083553 0.636111 -1.210152
v -0.142226 0.516555 -1.272704
v -0.210427 0.378651 -1.358088
v -0.289214 0.210449 -1.463695
v 0.102982 0.210449 -1.515329
v 0.153472 0.378651 -1.405996
v 0.198794 0.516555 -1.317600
v 0.240707 0.636111 -1.252842
v 0.283525 0.749269 -1.214419
v 0.332852 0.867979 -1.205032
vn -0.0140 0.5209 -0.8535
vn 0.0038 -0.5830 -0.8125
vn 0.2133 0.4789 -0.8515
vn 0.2119 -0.5931 -0.7768
vn 0.4380 0.4363 -0.7860
vn 0.4019 -0.6023 -0.6898
vn 0.6408 0.3968 -0.6573
vn 0.5621 -0.6099 -0.5586
vn 0.8021 0.3647 -0.4730
vn 0.6833 -0.6157 -0.3925
vn 0.9059 0.3436 -0.2474
vn 0.7587 -0.6193 -0.2023
vn 0.9417 0.3363 -0.0000
vn 0.7842 -0.6205 -0.0000
vn 0.9059 0.3436 0.2474
vn 0.7587 -0.6193 0.2023
vn 0.8021 0.3647 0.4730
vn 0.6833 -0.6157 0.3925
vn 0.6408 0.3968 0.6573
vn 0.5621 -0.6099 0.5586
vn 0.4380 0.4363 0.7860
vn 0.4019 -0.6023 0.6898
vn 0.2133 0.4789 0.8515
vn 0.2119 -0.5931 0.7768
vn -0.0140 0.5209 0.8535
vn 0.0038 -0.5830 0.8125
vn -0.2269 0.5590 0.7975
vn -0.2086 -0.5725 0.7929
vn -0.4125 0.5915 0.6928
vn -0.4104 -0.5625 0.7177
vn -0.5623 0.6170 0.5505
vn -0.5868 -0.5537 0.5908
vn -0.6716 0.6354 0.3812
vn -0.7241 -0.5468 0.4204
vn -0.7378 0.6463 0.1947
vn -0.8112 -0.5424 0.2185
vn -0.7600 0.6500 -0.0000
vn -0.8411 -0.5409 -0.0000
vn -0.7378 0.6463 -0.1947
vn -0.8112 -0.5424 -0.2185
vn -0.6716 0.6354 -0.3812
vn -0.7241 -0.5468 -0.4204
vn -0.5623 0.6170 -0.5505
vn -0.5868 -0.5537 -0.5908
vn -0.4125 0.5915 -0.6928
vn -0.4104 -0.5625 -0.7177
vn -0.2269 0.5590 -0.7975
vn -0.2086 -0.5725 -0.7929
vn -0.0007 -0.1896 -0.9819
vn 0.0120 -0.2265 -0.9739
vn 0.0205 -0.2131 -0.9768
vn 0.0090 -0.2107 -0.9775
vn -0.0026 -0.2253 -0.9743
vn -0.0142 -0.2600 -0.9655
vn -0.0068 -0.3510 -0.9363
vn -0.0043 -0.4724 -0.8814
vn -0.0031 -0.5532 -0.8330
vn -0.0010 -0.5875 -0.8093
vn 0.0037 -0.5889 -0.8082
vn 0.2082 -0.6097 -0.7648
vn 0.2017 -0.6219 -0.7567
vn 0.2068 -0.5873 -0.7825
vn 0.2210 -0.4957 -0.8399
vn 0.2365 -0.3462 -0.9079
vn 0.2404 -0.1811 -0.9536
vn 0.2553 -0.0720 -0.9642
vn 0.2682 -0.0679 -0.9610
vn 0.2763 -0.1666 -0.9465
vn 0.2594 -0.2855 -0.9226
vn 0.2465 -0.2955 -0.9230
vn 0.3915 -0.6276 -0.6729
vn 0.3787 -0.6510 -0.6578
vn 0.3916 -0.6165 -0.6830
vn 0.4252 -0.5165 -0.7432
vn 0.4648 -0.3414 -0.8169
vn 0.4854 -0.1032 -0.8682
vn 0.4959 0.0757 -0.8651
vn 0.5062 0.0652 -0.8600
vn 0.5143 -0.1229 -0.8488
vn 0.4801 -0.3352 -0.8106
vn 0.4609 -0.3850 -0.7996
vn 0.5435 -0.6420 -0.5407
vn 0.5218 -0.6740 -0.5230
vn 0.5422 -0.6398 -0.5447
vn 0.5961 -0.5336 -0.5999
vn 0.6623 -0.3371 -0.6691
vn 0.6989 -0.0346 -0.7144
vn 0.6909 0.1994 -0.6949
vn 0.6994 0.1755 -0.6928
vn 0.7154 -0.0874 -0.6932
vn 0.6615 -0.3739 -0.6501
vn 0.6297 -0.4539 -0.6305
vn 0.6569 -0.6525 -0.3778
vn 0.6263 -0.6903 -0.3622
vn 0.6527 -0.6565 -0.3782
vn 0.7245 -0.5463 -0.4204
vn 0.8147 -0.3337 -0.4743
vn 0.8622 0.0174 -0.5062
vn 0.8280 0.2895 -0.4802
vn 0.8382 0.2557 -0.4818
vn 0.8690 -0.0612 -0.4910
vn 0.7952 -0.4015 -0.4544
vn 0.7488 -0.5017 -0.4331
vn 0.7268 -0.6589 -0.1941
vn 0.6896 -0.7001 -0.1851
vn 0.7199 -0.6665 -0.1935
vn 0.8039 -0.5541 -0.2163
vn 0.9108 -0.3315 -0.2459
vn 0.9638 0.0490 -0.2621
vn 0.9073 0.3429 -0.2433
vn 0.9208 0.3041 -0.2442
vn 0.9666 -0.0448 -0.2523
vn 0.8780 -0.4183 -0.2326
vn 0.8192 -0.5297 -0.2198
vn 0.7504 -0.6610 -0.0000
vn 0.7108 -0.7034 -0.0000
vn 0.7425 -0.6699 -0.0000
vn 0.8307 -0.5567 -0.0000
vn 0.9437 -0.3307 -0.0000
vn 0.9982 0.0596 -0.0000
vn 0.9330 0.3600 -0.0000
vn 0.9474 0.3201 -0.0000
vn 0.9992 -0.0392 -0.0000
vn 0.9058 -0.4237 -0.0000
vn 0.8424 -0.5388 -0.0000
vn 0.7268 -0.6589 0.1941
vn 0.6896 -0.7001 0.1851
vn 0.7199 -0.6665 0.1935
vn 0.8039 -0.5541 0.2163
vn 0.9108 -0.3315 0.2459
vn 0.9638 0.0490 0.2621
vn 0.9073 0.3429 0.2433
vn 0.9208 0.3041 0.2442
vn 0.9666 -0.0448 0.2523
vn 0.8780 -0.4183 0.2326
vn 0.8192 -0.5297 0.2198
vn 0.6569 -0.6525 0.3778
vn 0.6263 -0.6903 0.3622
vn 0.6527 -0.6565 0.3782
vn 0.7245 -0.5463 0.4204
vn 0.8147 -0.3337 0.4743
vn 0.8622 0.0174 0.5062
vn 0.8280 0.2895 0.4802
vn 0.8382 0.2557 0.4818
vn 0.8690 -0.0612 0.4910
vn 0.7952 -0.4015 0.4544
vn 0.7488 -0.5017 0.4331
vn 0.5435 -0.6420 0.5407
vn 0.5218 -0.6740 0.5230
vn 0.5422 -0.6398 0.5447
vn 0.5961 -0.5336 0.5999
vn 0.6623 -0.3371 0.6691
vn 0.6989 -0.0346 0.7144
vn 0.6909 0.1994 0.6949
vn 0.6994 0.1755 0.6928
vn 0.7154 -0.0874 0.6932
vn 0.6615 -0.3739 0.6501
vn 0.6297 -0.4539 0.6305
vn 0.3915 -0.6276 0.6729
vn 0.3787 -0.6510 0.6578
vn 0.3916 -0.6165 0.6830
vn 0.4252 -0.5165 0.7432
vn 0.4648 -0.3414 0.8169
vn 0.4854 -0.1032 0.8682
vn 0.4959 0.0757 0.8651
vn 0.5062 0.0652 0.8600
vn 0.5143 -0.1229 0.8488
vn 0.4801 -0.3352 0.8106
vn 0.4609 -0.3850 0.7996
vn 0.2082 -0.6097 0.7648
vn 0.2017 -0.6219 0.7567
vn 0.2068 -0.5873 0.7825
vn 0.2210 -0.4957 0.8399
vn 0.2365 -0.3461 0.9079
vn 0.2404 -0.1811 0.9536
vn 0.2553 -0.0720 0.9642
vn 0.2682 -0.0679 0.9610
vn 0.2763 -0.1666 0.9465
vn 0.2594 -0.2855 0.9226
vn 0.2465 -0.2955 0.9230
vn 0.0037 -0.5889 0.8082
vn -0.0010 -0.5875 0.8093
vn -0.0031 -0.5532 0.8330
vn -0.0043 -0.4724 0.8814
vn -0.0068 -0.3510 0.9363
vn -0.0142 -0.2600 0.9655
vn -0.0026 -0.2253 0.9743
vn 0.0090 -0.2107 0.9775
vn 0.0205 -0.2131 0.9768
vn 0.0120 -0.2265 0.9739
vn -0.0007 -0.1896 0.9819
vn -0.2095 -0.5665 0.7970
vn -0.2171 -0.5495 0.8068
vn -0.2247 -0.5162 0.8264
vn -0.2356 -0.4479 0.8625
vn -0.2482 -0.3556 0.9011
vn -0.2566 -0.3325 0.9075
vn -0.2443 -0.3648 0.8985
vn -0.2392 -0.3450 0.9076
vn -0.2360 -0.2571 0.9371
vn -0.2463 -0.1604 0.9558
vn -0.2590 -0.0756 0.9629
vn -0.4162 -0.5439 0.7286
vn -0.4305 -0.5108 0.7442
vn -0.4415 -0.4790 0.7587
vn -0.4563 -0.4242 0.7822
vn -0.4716 -0.3596 0.8051
vn -0.4694 -0.3936 0.7904
vn -0.4439 -0.4781 0.7579
vn -0.4489 -0.4562 0.7683
vn -0.4740 -0.2938 0.8300
vn -0.4938 -0.0921 0.8647
vn -0.5008 0.0344 0.8649
vn -0.6002 -0.5232 0.6050
vn -0.6227 -0.4748 0.6219
vn -0.6351 -0.4449 0.6314
vn -0.6496 -0.4031 0.6447
vn -0.6623 -0.3629 0.6555
vn -0.6409 -0.4408 0.6284
vn -0.5900 -0.5612 0.5804
vn -0.6048 -0.5381 0.5871
vn -0.6752 -0.3191 0.6651
vn -0.7078 -0.0278 0.7059
vn -0.7022 0.1288 0.7002
vn -0.7455 -0.5064 0.4333
vn -0.7755 -0.4455 0.4474
vn -0.7879 -0.4175 0.4527
vn -0.8000 -0.3864 0.4590
vn -0.8079 -0.3652 0.4625
vn -0.7656 -0.4736 0.4354
vn -0.6849 -0.6161 0.3890
vn -0.7054 -0.5917 0.3902
vn -0.8239 -0.3323 0.4591
vn -0.8686 0.0257 0.4949
vn -0.8493 0.1996 0.4887
vn -0.8387 -0.4954 0.2261
vn -0.8738 -0.4263 0.2340
vn -0.8857 -0.3996 0.2363
vn -0.8955 -0.3758 0.2386
vn -0.8991 -0.3667 0.2391
vn -0.8413 -0.4927 0.2226
vn -0.7373 -0.6470 0.1945
vn -0.7591 -0.6217 0.1930
vn -0.9126 -0.3367 0.2321
vn -0.9655 0.0614 0.2532
vn -0.9373 0.2428 0.2502
vn -0.8708 -0.4916 -0.0000
vn -0.9077 -0.4196 -0.0000
vn -0.9193 -0.3935 -0.0000
vn -0.9282 -0.3721 -0.0000
vn -0.9302 -0.3671 -0.0000
vn -0.8666 -0.4989 -0.0000
vn -0.7540 -0.6569 -0.0000
vn -0.7756 -0.6313 -0.0000
vn -0.9414 -0.3372 -0.0000
vn -0.9973 0.0740 -0.0000
vn -0.9663 0.2573 -0.0000
vn -0.8387 -0.4954 -0.2261
vn -0.8738 -0.4263 -0.2340
vn -0.8857 -0.3996 -0.2363
vn -0.8955 -0.3758 -0.2386
vn -0.8991 -0.3667 -0.2391
vn -0.8413 -0.4927 -0.2226
vn -0.7373 -0.6470 -0.1945
vn -0.7591 -0.6217 -0.1930
vn -0.9126 -0.3367 -0.2321
vn -0.9655 0.0614 -0.2532
vn -0.9373 0.2428 -0.2502
vn -0.7455 -0.5064 -0.4333
vn -0.7755 -0.4455 -0.4474
vn -0.7879 -0.4175 -0.4527
vn -0.8000 -0.3864 -0.4590
vn -0.8079 -0.3652 -0.4625
vn -0.7656 -0.4736 -0.4354
vn -0.6849 -0.6161 -0.3890
vn -0.7054 -0.5917 -0.3902
vn -0.8239 -0.3323 -0.4591
vn -0.8686 0.0257 -0.4949
vn -0.8493 0.1996 -0.4887
vn -0.6002 -0.5232 -0.6050
vn -0.6227 -0.4748 -0.6219
vn -0.6351 -0.4449 -0.6314
vn -0.6496 -0.4031 -0.6447
vn -0.6623 -0.3629 -0.6555
vn -0.6409 -0.4408 -0.6284
vn -0.5900 -0.5612 -0.5804
vn -0.6048 -0.5381 -0.5871
vn -0.6752 -0.3191 -0.6651
vn -0.7078 -0.0278 -0.7059
vn -0.7022 0.1288 -0.7002
vn -0.4162 -0.5439 -0.7286
vn -0.4305 -0.5108 -0.7442
vn -0.4415 -0.4790 -0.7587
vn -0.4563 -0.4242 -0.7822
vn -0.4716 -0.3596 -0.8051
vn -0.4694 -0.3936 -0.7904
vn -0.4439 -0.4781 -0.7579
vn -0.4489 -0.4562 -0.7683
vn -0.4740 -0.2938 -0.8300
vn -0.4938 -0.0921 -0.8647
vn -0.5008 0.0344 -0.8649
vn -0.2095 -0.5665 -0.7970
vn -0.2171 -0.5495 -0.8068
vn -0.2247 -0.5162 -0.8264
vn -0.2356 -0.4479 -0.8625
vn -0.2482 -0.3556 -0.9011
vn -0.2566 -0.3325 -0.9075
vn -0.2443 -0.3648 -0.8985
vn -0.2392 -0.3450 -0.9076
vn -0.2360 -0.2571 -0.9371
vn -0.2463 -0.1604 -0.9558
vn -0.2590 -0.0756 -0.9629
vn 0.2547 -0.1497 -0.9554
vn 0.2560 0.1065 -0.9608
vn 0.2438 0.3276 -0.9128
vn 0.2316 0.4504 -0.8623
vn 0.2264 0.4915 -0.8409
vn 0.2265 0.4864 -0.8439
vn 0.4835 -0.2482 -0.8394
vn 0.4989 0.0116 -0.8666
vn 0.4834 0.2503 -0.8389
vn 0.4608 0.3892 -0.7976
vn 0.4498 0.4391 -0.7777
vn 0.4490 0.4406 -0.7774
vn 0.6677 -0.3271 -0.6687
vn 0.7047 -0.0701 -0.7060
vn 0.6950 0.1799 -0.6961
vn 0.6670 0.3320 -0.6670
vn 0.6514 0.3901 -0.6508
vn 0.6486 0.3982 -0.6487
vn 0.7996 -0.3834 -0.4622
vn 0.8582 -0.1319 -0.4961
vn 0.8591 0.1238 -0.4967
vn 0.8300 0.2854 -0.4793
vn 0.8113 0.3500 -0.4682
vn 0.8066 0.3637 -0.4659
vn 0.8780 -0.4168 -0.2355
vn 0.9518 -0.1700 -0.2553
vn 0.9621 0.0880 -0.2581
vn 0.9340 0.2550 -0.2503
vn 0.9139 0.3238 -0.2448
vn 0.9079 0.3412 -0.2434
vn 0.9039 -0.4278 -0.0000
vn 0.9831 -0.1828 -0.0000
vn 0.9971 0.0756 -0.0000
vn 0.9697 0.2444 -0.0000
vn 0.9492 0.3146 -0.0000
vn 0.9428 0.3334 -0.0000
vn 0.8780 -0.4168 0.2355
vn 0.9518 -0.1700 0.2553
vn 0.9621 0.0880 0.2581
vn 0.9340 0.2550 0.2503
vn 0.9139 0.3238 0.2448
vn 0.9079 0.3412 0.2434
vn 0.7996 -0.3834 0.4622
vn 0.8582 -0.1319 0.4961
vn 0.8591 0.1238 0.4967
vn 0.8300 0.2854 0.4793
vn 0.8113 0.3500 0.4682
vn 0.8066 0.3637 0.4659
vn 0.6677 -0.3271 0.6687
vn 0.7047 -0.0701 0.7060
vn 0.6950 0.1799 0.6961
vn 0.6670 0.3320 0.6670
vn 0.6514 0.3901 0.6508
vn 0.6486 0.3982 0.6487
vn 0.4835 -0.2482 0.8394
vn 0.4989 0.0116 0.8666
vn 0.4834 0.2503 0.8389
vn 0.4608 0.3892 0.7976
vn 0.4498 0.4391 0.7777
vn 0.4490 0.4406 0.7774
vn 0.2547 -0.1497 0.9554
vn 0.2560 0.1065 0.9608
vn 0.2438 0.3276 0.9128
vn 0.2316 0.4504 0.8623
vn 0.2264 0.4915 0.8409
vn 0.2265 0.4863 0.8439
vn -0.0014 -0.0390 0.9992
vn -0.0015 0.2052 0.9787
vn -0.0005 0.4037 0.9149
vn 0.0007 0.5097 0.8603
vn 0.0012 0.5424 0.8401
vn 0.0006 0.5313 0.8472
vn -0.2594 0.0732 0.9630
vn -0.2483 0.2980 0.9217
vn -0.2285 0.4722 0.8514
vn -0.2132 0.5626 0.7988
vn -0.2081 0.5879 0.7817
vn -0.2115 0.5721 0.7924
vn -0.4933 0.1753 0.8520
vn -0.4639 0.3775 0.8014
vn -0.4244 0.5292 0.7348
vn -0.3969 0.6063 0.6891
vn -0.3889 0.6258 0.6761
vn -0.3968 0.6066 0.6889
vn -0.6837 0.2587 0.6824
vn -0.6356 0.4398 0.6345
vn -0.5795 0.5730 0.5795
vn -0.5429 0.6399 0.5439
vn -0.5335 0.6552 0.5349
vn -0.5464 0.6338 0.5475
vn -0.8211 0.3191 0.4733
vn -0.7583 0.4837 0.4372
vn -0.6904 0.6036 0.3987
vn -0.6477 0.6635 0.3745
vn -0.6379 0.6759 0.3691
vn -0.6555 0.6532 0.3791
vn -0.9030 0.3552 0.2416
vn -0.8312 0.5095 0.2225
vn -0.7566 0.6216 0.2028
vn -0.7105 0.6774 0.1907
vn -0.7007 0.6882 0.1881
vn -0.7216 0.6647 0.1936
vn -0.9302 0.3671 -0.0000
vn -0.8554 0.5180 -0.0000
vn -0.7786 0.6275 -0.0000
vn -0.7314 0.6819 -0.0000
vn -0.7216 0.6923 -0.0000
vn -0.7437 0.6685 -0.0000
vn -0.9030 0.3552 -0.2416
vn -0.8312 0.5095 -0.2225
vn -0.7566 0.6216 -0.2028
vn -0.7105 0.6774 -0.1907
vn -0.7007 0.6882 -0.1881
vn -0.7216 0.6647 -0.1936
vn -0.8211 0.3191 -0.4733
vn -0.7583 0.4837 -0.4372
vn -0.6904 0.6036 -0.3987
vn -0.6477 0.6635 -0.3745
vn -0.6379 0.6759 -0.3691
vn -0.6555 0.6532 -0.3791
vn -0.6837 0.2587 -0.6824
vn -0.6356 0.4398 -0.6345
vn -0.5795 0.5730 -0.5795
vn -0.5429 0.6399 -0.5439
vn -0.5335 0.6552 -0.5349
vn -0.5464 0.6338 -0.5475
vn -0.4933 0.1753 -0.8520
vn -0.4639 0.3775 -0.8014
vn -0.4244 0.5292 -0.7348
vn -0.3969 0.6063 -0.6891
vn -0.3889 0.6258 -0.6761
vn -0.3968 0.6066 -0.6889
vn -0.2594 0.0732 -0.9630
vn -0.2483 0.2980 -0.9217
vn -0.2285 0.4722 -0.8514
vn -0.2132 0.5626 -0.7988
vn -0.2081 0.5879 -0.7817
vn -0.2115 0.5721 -0.7924
vn 0.0006 0.5313 -0.8472
vn 0.0012 0.5424 -0.8401
vn 0.0007 0.5097 -0.8603
vn -0.0005 0.4037 -0.9149
vn -0.0015 0.2052 -0.9787
vn -0.0014 -0.0390 -0.9992
vt 1.000000 0.916971
vt 1.000000 1.000000
vt 0.958333 1.000000
vt 0.958333 0.916971
vt 0.916667 1.000000
vt 0.916667 0.916971
vt 0.875000 1.000000
vt 0.875000 0.916971
vt 0.833333 1.000000
vt 0.833333 0.916971
vt 0.791667 1.000000
vt 0.791667 0.916971
vt 0.750000 1.000000
vt 0.750000 0.916971
vt 0.708333 1.000000
vt 0.708333 0.916971
vt 0.666667 1.000000
vt 0.666667 0.916971
vt 0.625000 1.000000
vt 0.625000 0.916971
vt 0.583333 1.000000
vt 0.583333 0.916971
vt 0.541666 1.000000
vt 0.541666 0.916971
vt 0.500000 1.000000
vt 0.500000 0.916971
vt 0.458333 1.000000
vt 0.458333 0.916971
vt 0.416666 1.000000
vt 0.416667 0.916971
vt 0.375000 1.000000
vt 0.375000 0.916971
vt 0.333333 1.000000
vt 0.333333 0.916971
vt 0.291667 1.000000
vt 0.291667 0.916971
vt 0.250000 1.000000
vt 0.250000 0.916971
vt 0.208333 1.000000
vt 0.208333 0.916971
vt 0.166666 1.000000
vt 0.166667 0.916971
vt 0.125000 1.000000
vt 0.125000 0.916971
vt 0.083333 1.000000
vt 0.083333 0.916971
vt 0.041666 1.000000
vt 0.041666 0.916971
vt -0.000000 1.000000
vt -0.000000 0.916971
vt 0.041666 0.071689
vt 0.041666 0.083637
vt -0.000000 0.083637
vt -0.000000 0.071689
vt 0.041666 0.166971
vt -0.000000 0.166971
vt 0.041666 0.250304
vt -0.000000 0.250304
vt 0.041666 0.333638
vt -0.000000 0.333638
vt 0.041666 0.416971
vt -0.000000 0.416971
vt 0.041666 0.500304
vt -0.000000 0.500304
vt 0.041666 0.583637
vt -0.000000 0.583637
vt 0.041666 0.666971
vt -0.000000 0.666971
vt 0.041666 0.750304
vt -0.000000 0.750304
vt 0.041666 0.833637
vt -0.000000 0.833637
vt 0.083333 0.071689
vt 0.083333 0.083637
vt 0.083333 0.166971
vt 0.083333 0.250304
vt 0.083333 0.333638
vt 0.083333 0.416971
vt 0.083333 0.500304
vt 0.083333 0.583637
vt 0.083333 0.666971
vt 0.083333 0.750304
vt 0.083333 0.833637
vt 0.125000 0.071689
vt 0.125000 0.083637
vt 0.125000 0.166971
vt 0.125000 0.250304
vt 0.125000 0.333638
vt 0.125000 0.416971
vt 0.125000 0.500304
vt 0.125000 0.583637
vt 0.125000 0.666971
vt 0.125000 0.750304
vt 0.125000 0.833637
vt 0.166666 0.071689
vt 0.166666 0.083637
vt 0.166666 0.166971
vt 0.166666 0.250304
vt 0.166666 0.333638
vt 0.166666 0.416971
vt 0.166666 0.500304
vt 0.166667 0.583637
vt 0.166667 0.666971
vt 0.166667 0.750304
vt 0.166667 0.833637
vt 0.208333 0.071689
vt 0.208333 0.083637
vt 0.208333 0.166971
vt 0.208333 0.250304
vt 0.208333 0.333637
vt 0.208333 0.416971
vt 0.208333 0.500304
vt 0.208333 0.583637
vt 0.208333 0.666971
vt 0.208333 0.750304
vt 0.208333 0.833637
vt 0.250000 0.071689
vt 0.250000 0.083637
vt 0.250000 0.166971
vt 0.250000 0.250304
vt 0.250000 0.333638
vt 0.250000 0.416971
vt 0.250000 0.500304
vt 0.250000 0.583637
vt 0.250000 0.666971
vt 0.250000 0.750304
vt 0.250000 0.833637
vt 0.291667 0.071689
vt 0.291667 0.083637
vt 0.291667 0.166971
vt 0.291667 0.250304
vt 0.291667 0.333638
vt 0.291667 0.416971
vt 0.291667 0.500304
vt 0.291667 0.583637
vt 0.291667 0.666971
vt 0.291666 0.750304
vt 0.291667 0.833637
vt 0.333333 0.071689
vt 0.333333 0.083637
vt 0.333333 0.166971
vt 0.333333 0.250304
vt 0.333333 0.333638
vt 0.333333 0.416971
vt 0.333333 0.500304
vt 0.333333 0.583637
vt 0.333333 0.666971
vt 0.333333 0.750304
vt 0.333333 0.833637
vt 0.375000 0.071689
vt 0.375000 0.083637
vt 0.375000 0.166971
vt 0.375000 0.250304
vt 0.375000 0.333638
vt 0.375000 0.416971
vt 0.375000 0.500304
vt 0.375000 0.583637
vt 0.375000 0.666971
vt 0.375000 0.750304
vt 0.375000 0.833637
vt 0.416666 0.071689
vt 0.416666 0.083637
vt 0.416667 0.166971
vt 0.416667 0.250304
vt 0.416667 0.333638
vt 0.416666 0.416971
vt 0.416666 0.500304
vt 0.416667 0.583637
vt 0.416666 0.666971
vt 0.416666 0.750304
vt 0.416666 0.833637
vt 0.458333 0.071689
vt 0.458333 0.083637
vt 0.458333 0.166971
vt 0.458333 0.250304
vt 0.458333 0.333637
vt 0.458333 0.416971
vt 0.458333 0.500304
vt 0.458333 0.583637
vt 0.458333 0.666971
vt 0.458333 0.750304
vt 0.458333 0.833637
vt 0.500000 0.071689
vt 0.500000 0.083637
vt 0.500000 0.166971
vt 0.500000 0.250304
vt 0.500000 0.333638
vt 0.500000 0.416971
vt 0.500000 0.500304
vt 0.500000 0.583637
vt 0.500000 0.666971
vt 0.500000 0.750304
vt 0.500000 0.833637
vt 0.541666 0.071689
vt 0.541666 0.083637
vt 0.541666 0.166971
vt 0.541667 0.250304
vt 0.541667 0.333638
vt 0.541667 0.416971
vt 0.541666 0.500304
vt 0.541667 0.583637
vt 0.541666 0.666971
vt 0.541666 0.750304
vt 0.541667 0.833637
vt 0.583333 0.071689
vt 0.583333 0.083637
vt 0.583333 0.166971
vt 0.583333 0.250304
vt 0.583333 0.333638
vt 0.583333 0.416971
vt 0.583333 0.500304
vt 0.583333 0.583637
vt 0.583333 0.666971
vt 0.583333 0.750304
vt 0.583333 0.833637
vt 0.625000 0.071689
vt 0.625000 0.083637
vt 0.625000 0.166971
vt 0.625000 0.250304
vt 0.625000 0.333638
vt 0.625000 0.416971
vt 0.625000 0.500304
vt 0.625000 0.583637
vt 0.625000 0.666971
vt 0.625000 0.750304
vt 0.625000 0.833637
vt 0.666667 0.071689
vt 0.666667 0.083637
vt 0.666667 0.166971
vt 0.666667 0.250304
vt 0.666667 0.333638
vt 0.666667 0.416971
vt 0.666667 0.500304
vt 0.666667 0.583637
vt 0.666667 0.666971
vt 0.666667 0.750304
vt 0.666667 0.833637
vt 0.708333 0.071689
vt 0.708333 0.083637
vt 0.708333 0.166971
vt 0.708333 0.250304
vt 0.708333 0.333638
vt 0.708333 0.416971
vt 0.708333 0.500304
vt 0.708333 0.583637
vt 0.708333 0.666971
vt 0.708333 0.750304
vt 0.708333 0.833637
vt 0.750000 0.071689
vt 0.750000 0.083637
vt 0.750000 0.166971
vt 0.750000 0.250304
vt 0.750000 0.333638
vt 0.750000 0.416971
vt 0.750000 0.500304
vt 0.750000 0.583637
vt 0.750000 0.666971
vt 0.750000 0.750304
vt 0.750000 0.833637
vt 0.791666 0.071689
vt 0.791666 0.083637
vt 0.791667 0.166971
vt 0.791667 0.250304
vt 0.791667 0.333637
vt 0.791667 0.416971
vt 0.791667 0.500304
vt 0.791667 0.583637
vt 0.791667 0.666971
vt 0.791667 0.750304
vt 0.791667 0.833637
vt 0.833333 0.071689
vt 0.833333 0.083637
vt 0.833333 0.166971
vt 0.833333 0.250304
vt 0.833333 0.333638
vt 0.833333 0.416971
vt 0.833333 0.500304
vt 0.833333 0.583637
vt 0.833333 0.666971
vt 0.833333 0.750304
vt 0.833333 0.833637
vt 0.875000 0.071689
vt 0.875000 0.083637
vt 0.875000 0.166971
vt 0.875000 0.250304
vt 0.875000 0.333638
vt 0.875000 0.416971
vt 0.875000 0.500304
vt 0.875000 0.583637
vt 0.875000 0.666971
vt 0.875000 0.750304
vt 0.875000 0.833637
vt 0.916667 0.071689
vt 0.916667 0.083637
vt 0.916667 0.166971
vt 0.916667 0.250304
vt 0.916667 0.333638
vt 0.916667 0.416971
vt 0.916666 0.500304
vt 0.916667 0.583637
vt 0.916667 0.666971
vt 0.916667 0.750304
vt 0.916667 0.833637
vt 0.958333 0.071689
vt 0.958333 0.083637
vt 0.958333 0.166971
vt 0.958333 0.250304
vt 0.958333 0.333638
vt 0.958333 0.416971
vt 0.958333 0.500304
vt 0.958333 0.583637
vt 0.958333 0.666971
vt 0.958333 0.750304
vt 0.958333 0.833637
vt 1.000000 0.071689
vt 1.000000 0.083637
vt 1.000000 0.166971
vt 1.000000 0.250304
vt 1.000000 0.333638
vt 1.000000 0.416971
vt 1.000000 0.500304
vt 1.000000 0.583637
vt 1.000000 0.666971
vt 1.000000 0.750304
vt 1.000000 0.833637
vt 1.000000 0.000000
vt 1.000000 0.011948
vt 0.958333 0.011948
vt 0.958333 0.000000
vt 1.000000 0.023896
vt 0.958333 0.023896
vt 1.000000 0.035845
vt 0.958333 0.035845
vt 1.000000 0.047793
vt 0.958333 0.047793
vt 1.000000 0.059741
vt 0.958333 0.059741
vt 0.916667 0.011948
vt 0.916667 0.000000
vt 0.916667 0.023896
vt 0.916667 0.035845
vt 0.916667 0.047793
vt 0.916667 0.059741
vt 0.875000 0.011948
vt 0.875000 0.000000
vt 0.875000 0.023896
vt 0.875000 0.035845
vt 0.875000 0.047793
vt 0.875000 0.059741
vt 0.833333 0.011948
vt 0.833333 0.000000
vt 0.833333 0.023896
vt 0.833333 0.035845
vt 0.833333 0.047793
vt 0.833333 0.059741
vt 0.791667 0.011948
vt 0.791667 0.000000
vt 0.791667 0.023896
vt 0.791666 0.035845
vt 0.791666 0.047793
vt 0.791667 0.059741
vt 0.750000 0.011948
vt 0.750000 0.000000
vt 0.750000 0.023896
vt 0.750000 0.035845
vt 0.750000 0.047793
vt 0.750000 0.059741
vt 0.708333 0.011948
vt 0.708333 0.000000
vt 0.708333 0.023896
vt 0.708333 0.035845
vt 0.708333 0.047793
vt 0.708333 0.059741
vt 0.666667 0.011948
vt 0.666667 0.000000
vt 0.666667 0.023896
vt 0.666667 0.035845
vt 0.666667 0.047793
vt 0.666667 0.059741
vt 0.625000 0.011948
vt 0.625000 0.000000
vt 0.625000 0.023896
vt 0.625000 0.035845
vt 0.625000 0.047793
vt 0.625000 0.059741
vt 0.583333 0.011948
vt 0.583333 0.000000
vt 0.583333 0.023896
vt 0.583333 0.035845
vt 0.583333 0.047793
vt 0.583333 0.059741
vt 0.541666 0.011948
vt 0.541666 0.000000
vt 0.541666 0.023896
vt 0.541666 0.035845
vt 0.541666 0.047793
vt 0.541666 0.059741
vt 0.500000 0.011948
vt 0.500000 0.000000
vt 0.500000 0.023896
vt 0.500000 0.035845
vt 0.500000 0.047793
vt 0.500000 0.059741
vt 0.458333 0.011948
vt 0.458333 0.000000
vt 0.458333 0.023896
vt 0.458333 0.035845
vt 0.458333 0.047793
vt 0.458333 0.059741
vt 0.416667 0.011948
vt 0.416666 0.000000
vt 0.416666 0.023896
vt 0.416666 0.035845
vt 0.416667 0.047793
vt 0.416666 0.059741
vt 0.375000 0.011948
vt 0.375000 0.000000
vt 0.375000 0.023896
vt 0.375000 0.035845
vt 0.375000 0.047793
vt 0.375000 0.059741
vt 0.333333 0.011948
vt 0.333333 0.000000
vt 0.333333 0.023896
vt 0.333333 0.035845
vt 0.333333 0.047793
vt 0.333333 0.059741
vt 0.291667 0.011948
vt 0.291667 0.000000
vt 0.291667 0.023896
vt 0.291666 0.035845
vt 0.291667 0.047793
vt 0.291667 0.059741
vt 0.250000 0.011948
vt 0.250000 0.000000
vt 0.250000 0.023896
vt 0.250000 0.035845
vt 0.250000 0.047793
vt 0.250000 0.059741
vt 0.208333 0.011948
vt 0.208333 0.000000
vt 0.208333 0.023896
vt 0.208333 0.035845
vt 0.208333 0.047793
vt 0.208333 0.059741
vt 0.166666 0.011948
vt 0.166666 0.000000
vt 0.166666 0.023896
vt 0.166666 0.035845
vt 0.166666 0.047793
vt 0.166666 0.059741
vt 0.125000 0.011948
vt 0.125000 0.000000
vt 0.125000 0.023896
vt 0.125000 0.035845
vt 0.125000 0.047793
vt 0.125000 0.059741
vt 0.083333 0.011948
vt 0.083333 0.000000
vt 0.083333 0.023896
vt 0.083333 0.035845
vt 0.083333 0.047793
vt 0.083333 0.059741
vt 0.041666 0.011948
vt 0.041666 0.000000
vt 0.041666 0.023896
vt 0.041666 0.035845
vt 0.041666 0.047793
vt 0.041666 0.059741
vt -0.000000 0.011948
vt -0.000000 0.000000
vt -0.000000 0.023896
vt -0.000000 0.035845
vt -0.000000 0.047793
vt -0.000000 0.059741
s 1
f 59/1/59 2/2/2 4/3/4 60/4/60
f 60/4/60 4/3/4 6/5/6 71/6/71
f 71/6/71 6/5/6 8/7/8 82/8/82
f 82/8/82 8/7/8 10/9/10 93/10/93
f 93/10/93 10/9/10 12/11/12 104/12/104
f 104/12/104 12/11/12 14/13/14 115/14/115
f 115/14/115 14/13/14 16/15/16 126/16/126
f 126/16/126 16/15/16 18/17/18 137/18/137
f 137/18/137 18/17/18 20/19/20 148/20/148
f 148/20/148 20/19/20 22/21/22 159/22/159
f 159/22/159 22/21/22 24/23/24 170/24/170
f 170/24/170 24/23/24 26/25/26 181/26/181
f 181/26/181 26/25/26 28/27/28 192/28/192
f 192/28/192 28/27/28 30/29/30 203/30/203
f 203/30/203 30/29/30 32/31/32 214/32/214
f 214/32/214 32/31/32 34/33/34 225/34/225
f 225/34/225 34/33/34 36/35/36 236/36/236
f 236/36/236 36/35/36 38/37/38 247/38/247
f 247/38/247 38/37/38 40/39/40 258/40/258
f 258/40/258 40/39/40 42/41/42 269/42/269
f 269/42/269 42/41/42 44/43/44 280/44/280
f 280/44/280 44/43/44 46/45/46 291/46/291
f 291/46/291 46/45/46 48/47/48 302/48/302
f 302/48/302 48/47/48 2/49/2 59/50/59
f 445/51/445 312/52/312 49/53/49 456/54/456
f 312/52/312 311/55/311 50/56/50 49/53/49
f 311/55/311 310/57/310 51/58/51 50/56/50
f 310/57/310 309/59/309 52/60/52 51/58/51
f 309/59/309 308/61/308 53/62/53 52/60/52
f 308/61/308 307/63/307 54/64/54 53/62/53
f 307/63/307 306/65/306 55/66/55 54/64/54
f 306/65/306 305/67/305 56/68/56 55/66/55
f 305/67/305 304/69/304 57/70/57 56/68/56
f 304/69/304 303/71/303 58/72/58 57/70/57
f 303/71/303 302/48/302 59/50/59 58/72/58
f 439/73/439 301/74/301 312/52/312 445/51/445
f 301/74/301 300/75/300 311/55/311 312/52/312
f 300/75/300 299/76/299 310/57/310 311/55/311
f 299/76/299 298/77/298 309/59/309 310/57/310
f 298/77/298 297/78/297 308/61/308 309/59/309
f 297/78/297 296/79/296 307/63/307 308/61/308
f 296/79/296 295/80/295 306/65/306 307/63/307
f 295/80/295 294/81/294 305/67/305 306/65/306
f 294/81/294 293/82/293 304/69/304 305/67/305
f 293/82/293 292/83/292 303/71/303 304/69/304
f 292/83/292 291/46/291 302/48/302 303/71/303
f 433/84/433 290/85/290 301/74/301 439/73/439
f 290/85/290 289/86/289 300/75/300 301/74/301
f 289/86/289 288/87/288 299/76/299 300/75/300
f 288/87/288 287/88/287 298/77/298 299/76/299
f 287/88/287 286/89/286 297/78/297 298/77/298
f 286/89/286 285/90/285 296/79/296 297/78/297
f 285/90/285 284/91/284 295/80/295 296/79/296
f 284/91/284 283/92/283 294/81/294 295/80/295
f 283/92/283 282/93/282 293/82/293 294/81/294
f 282/93/282 281/94/281 292/83/292 293/82/293
f 281/94/281 280/44/280 291/46/291 292/83/292
f 427/95/427 279/96/279 290/85/290 433/84/433
f 279/96/279 278/97/278 289/86/289 290/85/290
f 278/97/278 277/98/277 288/87/288 289/86/289
f 277/98/277 276/99/276 287/88/287 288/87/288
f 276/99/276 275/100/275 286/89/286 287/88/287
f 275/100/275 274/101/274 285/90/285 286/89/286
f 274/101/274 273/102/273 284/91/284 285/90/285
f 273/102/273 272/103/272 283/92/283 284/91/284
f 272/103/272 271/104/271 282/93/282 283/92/283
f 271/104/271 270/105/270 281/94/281 282/93/282
f 270/105/270 269/42/269 280/44/280 281/94/281
f 421/106/421 268/107/268 279/96/279 427/95/427
f 268/107/268 267/108/267 278/97/278 279/96/279
f 267/108/267 266/109/266 277/98/277 278/97/278
f 266/109/266 265/110/265 276/99/276 277/98/277
f 265/110/265 264/111/264 275/100/275 276/99/276
f 264/111/264 263/112/263 274/101/274 275/100/275
f 263/112/263 262/113/262 273/102/273 274/101/274
f 262/113/262 261/114/261 272/103/272 273/102/273
f 261/114/261 260/115/260 271/104/271 272/103/272
f 260/115/260 259/116/259 270/105/270 271/104/271
f 259/116/259 258/40/258 269/42/269 270/105/270
f 415/117/415 257/118/257 268/107/268 421/106/421
f 257/118/257 256/119/256 267/108/267 268/107/268
f 256/119/256 255/120/255 266/109/266 267/108/267
f 255/120/255 254/121/254 265/110/265 266/109/266
f 254/121/254 253/122/253 264/111/264 265/110/265
f 253/122/253 252/123/252 263/112/263 264/111/264
f 252/123/252 251/124/251 262/113/262 263/112/263
f 251/124/251 250/125/250 261/114/261 262/113/262
f 250/125/250 249/126/249 260/115/260 261/114/261
f 249/126/249 248/127/248 259/116/259 260/115/260
f 248/127/248 247/38/247 258/40/258 259/116/259
f 409/128/409 246/129/246 257/118/257 415/117/415
f 246/129/246 245/130/245 256/119/256 257/118/257
f 245/130/245 244/131/244 255/120/255 256/119/256
f 244/131/244 243/132/243 254/121/254 255/120/255
f 243/132/243 242/133/242 253/122/253 254/121/254
f 242/133/242 241/134/241 252/123/252 253/122/253
f 241/134/241 240/135/240 251/124/251 252/123/252
f 240/135/240 239/136/239 250/125/250 251/124/251
f 239/136/239 238/137/238 249/126/249 250/125/250
f 238/137/238 237/138/237 248/127/248 249/126/249
f 237/138/237 236/36/236 247/38/247 248/127/248
f 403/139/403 235/140/235 246/129/246 409/128/409
f 235/140/235 234/141/234 245/130/245 246/129/246
f 234/141/234 233/142/233 244/131/244 245/130/245
f 233/142/233 232/143/232 243/132/243 244/131/244
f 232/143/232 231/144/231 242/133/242 243/132/243
f 231/144/231 230/145/230 241/134/241 242/133/242
f 230/145/230 229/146/229 240/135/240 241/134/241
f 229/146/229 228/147/228 239/136/239 240/135/240
f 228/147/228 227/148/227 238/137/238 239/136/239
f 227/148/227 226/149/226 237/138/237 238/137/238
f 226/149/226 225/34/225 236/36/236 237/138/237
f 397/150/397 224/151/224 235/140/235 403/139/403
f 224/151/224 223/152/223 234/141/234 235/140/235
f 223/152/223 222/153/222 233/142/233 234/141/234
f 222/153/222 221/154/221 232/143/232 233/142/233
f 221/154/221 220/155/220 231/144/231 232/143/232
f 220/155/220 219/156/219 230/145/230 231/144/231
f 219/156/219 218/157/218 229/146/229 230/145/230
f 218/157/218 217/158/217 228/147/228 229/146/229
f 217/158/217 216/159/216 227/148/227 228/147/228
f 216/159/216 215/160/215 226/149/226 227/148/227
f 215/160/215 214/32/214 225/34/225 226/149/226
f 391/161/391 213/162/213 224/151/224 397/150/397
f 213/162/213 212/163/212 223/152/223 224/151/224
f 212/163/212 211/164/211 222/153/222 223/152/223
f 211/164/211 210/165/210 221/154/221 222/153/222
f 210/165/210 209/166/209 220/155/220 221/154/221
f 209/166/209 208/167/208 219/156/219 220/155/220
f 208/167/208 207/168/207 218/157/218 219/156/219
f 207/168/207 206/169/206 217/158/217 218/157/218
f 206/169/206 205/170/205 216/159/216 217/158/217
f 205/170/205 204/171/204 215/160/215 216/159/216
f 204/171/204 203/30/203 214/32/214 215/160/215
f 385/172/385 202/173/202 213/162/213 391/161/391
f 202/173/202 201/174/201 212/163/212 213/162/213
f 201/174/201 200/175/200 211/164/211 212/163/212
f 200/175/200 199/176/199 210/165/210 211/164/211
f 199/176/199 198/177/198 209/166/209 210/165/210
f 198/177/198 197/178/197 208/167/208 209/166/209
f 197/178/197 196/179/196 207/168/207 208/167/208
f 196/179/196 195/180/195 206/169/206 207/168/207
f 195/180/195 194/181/194 205/170/205 206/169/206
f 194/181/194 193/182/193 204/171/204 205/170/205
f 193/182/193 192/28/192 203/30/203 204/171/204
f 379/183/379 191/184/191 202/173/202 385/172/385
f 191/184/191 190/185/190 201/174/201 202/173/202
f 190/185/190 189/186/189 200/175/200 201/174/201
f 189/186/189 188/187/188 199/176/199 200/175/200
f 188/187/188 187/188/187 198/177/198 199/176/199
f 187/188/187 186/189/186 197/178/197 198/177/198
f 186/189/186 185/190/185 196/179/196 197/178/197
f 185/190/185 184/191/184 195/180/195 196/179/196
f 184/191/184 183/192/183 194/181/194 195/180/195
f 183/192/183 182/193/182 193/182/193 194/181/194
f 182/193/182 181/26/181 192/28/192 193/182/193
f 373/194/373 180/195/180 191/184/191 379/183/379
f 180/195/180 179/196/179 190/185/190 191/184/191
f 179/196/179 178/197/178 189/186/189 190/185/190
f 178/197/178 177/198/177 188/187/188 189/186/189
f 177/198/177 176/199/176 187/188/187 188/187/188
f 176/199/176 175/200/175 186/189/186 187/188/187
f 175/200/175 174/201/174 185/190/185 186/189/186
f 174/201/174 173/202/173 184/191/184 185/190/185
f 173/202/173 172/203/172 183/192/183 184/191/184
f 172/203/172 171/204/171 182/193/182 183/192/183
f 171/204/171 170/24/170 181/26/181 182/193/182
f 367/205/367 169/206/169 180/195/180 373/194/373
f 169/206/169 168/207/168 179/196/179 180/195/180
f 168/207/168 167/208/167 178/197/178 179/196/179
f 167/208/167 166/209/166 177/198/177 178/197/178
f 166/209/166 165/210/165 176/199/176 177/198/177
f 165/210/165 164/211/164 175/200/175 176/199/176
f 164/211/164 163/212/163 174/201/174 175/200/175
f 163/212/163 162/213/162 173/202/173 174/201/174
f 162/213/162 161/214/161 172/203/172 173/202/173
f 161/214/161 160/215/160 171/204/171 172/203/172
f 160/215/160 159/22/159 170/24/170 171/204/171
f 361/216/361 158/217/158 169/206/169 367/205/367
f 158/217/158 157/218/157 168/207/168 169/206/169
f 157/218/157 156/219/156 167/208/167 168/207/168
f 156/219/156 155/220/155 166/209/166 167/208/167
f 155/220/155 154/221/154 165/210/165 166/209/166
f 154/221/154 153/222/153 164/211/164 165/210/165
f 153/222/153 152/223/152 163/212/163 164/211/164
f 152/223/152 151/224/151 162/213/162 163/212/163
f 151/224/151 150/225/150 161/214/161 162/213/162
f 150/225/150 149/226/149 160/215/160 161/214/161
f 149/226/149 148/20/148 159/22/159 160/215/160
f 355/227/355 147/228/147 158/217/158 361/216/361
f 147/228/147 146/229/146 157/218/157 158/217/158
f 146/229/146 145/230/145 156/219/156 157/218/157
f 145/230/145 144/231/144 155/220/155 156/219/156
f 144/231/144 143/232/143 154/221/154 155/220/155
f 143/232/143 142/233/142 153/222/153 154/221/154
f 142/233/142 141/234/141 152/223/152 153/222/153
f 141/234/141 140/235/140 151/224/151 152/223/152
f 140/235/140 139/236/139 150/225/150 151/224/151
f 139/236/139 138/237/138 149/226/149 150/225/150
f 138/237/138 137/18/137 148/20/148 149/226/149
f 349/238/349 136/239/136 147/228/147 355/227/355
f 136/239/136 135/240/135 146/229/146 147/228/147
f 135/240/135 134/241/134 145/230/145 146/229/146
f 134/241/134 133/242/133 144/231/144 145/230/145
f 133/242/133 132/243/132 143/232/143 144/231/144
f 132/243/132 131/244/131 142/233/142 143/232/143
f 131/244/131 130/245/130 141/234/141 142/233/142
f 130/245/130 129/246/129 140/235/140 141/234/141
f 129/246/129 128/247/128 139/236/139 140/235/140
f 128/247/128 127/248/127 138/237/138 139/236/139
f 127/248/127 126/16/126 137/18/137 138/237/138
f 343/249/343 125/250/125 136/239/136 349/238/349
f 125/250/125 124/251/124 135/240/135 136/239/136
f 124/251/124 123/252/123 134/241/134 135/240/135
f 123/252/123 122/253/122 133/242/133 134/241/134
f 122/253/122 121/254/121 132/243/132 133/242/133
f 121/254/121 120/255/120 131/244/131 132/243/132
f 120/255/120 119/256/119 130/245/130 131/244/131
f 119/256/119 118/257/118 129/246/129 130/245/130
f 118/257/118 117/258/117 128/247/128 129/246/129
f 117/258/117 116/259/116 127/248/127 128/247/128
f 116/259/116 115/14/115 126/16/126 127/248/127
f 337/260/337 114/261/114 125/250/125 343/249/343
f 114/261/114 113/262/113 124/251/124 125/250/125
f 113/262/113 112/263/112 123/252/123 124/251/124
f 112/263/112 111/264/111 122/253/122 123/252/123
f 111/264/111 110/265/110 121/254/121 122/253/122
f 110/265/110 109/266/109 120/255/120 121/254/121
f 109/266/109 108/267/108 119/256/119 120/255/120
f 108/267/108 107/268/107 118/257/118 119/256/119
f 107/268/107 106/269/106 117/258/117 118/257/118
f 106/269/106 105/270/105 116/259/116 117/258/117
f 105/270/105 104/12/104 115/14/115 116/259/116
f 331/271/331 103/272/103 114/261/114 337/260/337
f 103/272/103 102/273/102 113/262/113 114/261/114
f 102/273/102 101/274/101 112/263/112 113/262/113
f 101/274/101 100/275/100 111/264/111 112/263/112
f 100/275/100 99/276/99 110/265/110 111/264/111
f 99/276/99 98/277/98 109/266/109 110/265/110
f 98/277/98 97/278/97 108/267/108 109/266/109
f 97/278/97 96/279/96 107/268/107 108/267/108
f 96/279/96 95/280/95 106/269/106 107/268/107
f 95/280/95 94/281/94 105/270/105 106/269/106
f 94/281/94 93/10/93 104/12/104 105/270/105
f 325/282/325 92/283/92 103/272/103 331/271/331
f 92/283/92 91/284/91 102/273/102 103/272/103
f 91/284/91 90/285/90 101/274/101 102/273/102
f 90/285/90 89/286/89 100/275/100 101/274/101
f 89/286/89 88/287/88 99/276/99 100/275/100
f 88/287/88 87/288/87 98/277/98 99/276/99
f 87/288/87 86/289/86 97/278/97 98/277/98
f 86/289/86 85/290/85 96/279/96 97/278/97
f 85/290/85 84/291/84 95/280/95 96/279/96
f 84/291/84 83/292/83 94/281/94 95/280/95
f 83/292/83 82/8/82 93/10/93 94/281/94
f 319/293/319 81/294/81 92/283/92 325/282/325
f 81/294/81 80/295/80 91/284/91 92/283/92
f 80/295/80 79/296/79 90/285/90 91/284/91
f 79/296/79 78/297/78 89/286/89 90/285/90
f 78/297/78 77/298/77 88/287/88 89/286/89
f 77/298/77 76/299/76 87/288/87 88/287/88
f 76/299/76 75/300/75 86/289/86 87/288/87
f 75/300/75 74/301/74 85/290/85 86/289/86
f 74/301/74 73/302/73 84/291/84 85/290/85
f 73/302/73 72/303/72 83/292/83 84/291/84
f 72/303/72 71/6/71 82/8/82 83/292/83
f 313/304/313 70/305/70 81/294/81 319/293/319
f 70/305/70 69/306/69 80/295/80 81/294/81
f 69/306/69 68/307/68 79/296/79 80/295/80
f 68/307/68 67/308/67 78/297/78 79/296/79
f 67/308/67 66/309/66 77/298/77 78/297/78
f 66/309/66 65/310/65 76/299/76 77/298/77
f 65/310/65 64/311/64 75/300/75 76/299/76
f 64/311/64 63/312/63 74/301/74 75/300/75
f 63/312/63 62/313/62 73/302/73 74/301/74
f 62/313/62 61/314/61 72/303/72 73/302/73
f 61/314/61 60/4/60 71/6/71 72/303/72
f 456/315/456 49/316/49 70/305/70 313/304/313
f 49/316/49 50/317/50 69/306/69 70/305/70
f 50/317/50 51/318/51 68/307/68 69/306/69
f 51/318/51 52/319/52 67/308/67 68/307/68
f 52/319/52 53/320/53 66/309/66 67/308/67
f 53/320/53 54/321/54 65/310/65 66/309/66
f 54/321/54 55/322/55 64/311/64 65/310/65
f 55/322/55 56/323/56 63/312/63 64/311/64
f 56/323/56 57/324/57 62/313/62 63/312/63
f 57/324/57 58/325/58 61/314/61 62/313/62
f 58/325/58 59/1/59 60/4/60 61/314/61
f 1/326/1 451/327/451 318/328/318 3/329/3
f 451/327/451 452/330/452 317/331/317 318/328/318
f 452/330/452 453/332/453 316/333/316 317/331/317
f 453/332/453 454/334/454 315/335/315 316/333/316
f 454/334/454 455/336/455 314/337/314 315/335/315
f 455/336/455 456/315/456 313/304/313 314/337/314
f 3/329/3 318/328/318 324/338/324 5/339/5
f 318/328/318 317/331/317 323/340/323 324/338/324
f 317/331/317 316/333/316 322/341/322 323/340/323
f 316/333/316 315/335/315 321/342/321 322/341/322
f 315/335/315 314/337/314 320/343/320 321/342/321
f 314/337/314 313/304/313 319/293/319 320/343/320
f 5/339/5 324/338/324 330/344/330 7/345/7
f 324/338/324 323/340/323 329/346/329 330/344/330
f 323/340/323 322/341/322 328/347/328 329/346/329
f 322/341/322 321/342/321 327/348/327 328/347/328
f 321/342/321 320/343/320 326/349/326 327/348/327
f 320/343/320 319/293/319 325/282/325 326/349/326
f 7/345/7 330/344/330 336/350/336 9/351/9
f 330/344/330 329/346/329 335/352/335 336/350/336
f 329/346/329 328/347/328 334/353/334 335/352/335
f 328/347/328 327/348/327 333/354/333 334/353/334
f 327/348/327 326/349/326 332/355/332 333/354/333
f 326/349/326 325/282/325 331/271/331 332/355/332
f 9/351/9 336/350/336 342/356/342 11/357/11
f 336/350/336 335/352/335 341/358/341 342/356/342
f 335/352/335 334/353/334 340/359/340 341/358/341
f 334/353/334 333/354/333 339/360/339 340/359/340
f 333/354/333 332/355/332 338/361/338 339/360/339
f 332/355/332 331/271/331 337/260/337 338/361/338
f 11/357/11 342/356/342 348/362/348 13/363/13
f 342/356/342 341/358/341 347/364/347 348/362/348
f 341/358/341 340/359/340 346/365/346 347/364/347
f 340/359/340 339/360/339 345/366/345 346/365/346
f 339/360/339 338/361/338 344/367/344 345/366/345
f 338/361/338 337/260/337 343/249/343 344/367/344
f 13/363/13 348/362/348 354/368/354 15/369/15
f 348/362/348 347/364/347 353/370/353 354/368/354
f 347/364/347 346/365/346 352/371/352 353/370/353
f 346/365/346 345/366/345 351/372/351 352/371/352
f 345/366/345 344/367/344 350/373/350 351/372/351
f 344/367/344 343/249/343 349/238/349 350/373/350
f 15/369/15 354/368/354 360/374/360 17/375/17
f 354/368/354 353/370/353 359/376/359 360/374/360
f 353/370/353 352/371/352 358/377/358 359/376/359
f 352/371/352 351/372/351 357/378/357 358/377/358
f 351/372/351 350/373/350 356/379/356 357/378/357
f 350/373/350 349/238/349 355/227/355 356/379/356
f 17/375/17 360/374/360 366/380/366 19/381/19
f 360/374/360 359/376/359 365/382/365 366/380/366
f 359/376/359 358/377/358 364/383/364 365/382/365
f 358/377/358 357/378/357 363/384/363 364/383/364
f 357/378/357 356/379/356 362/385/362 363/384/363
f 356/379/356 355/227/355 361/216/361 362/385/362
f 19/381/19 366/380/366 372/386/372 21/387/21
f 366/380/366 365/382/365 371/388/371 372/386/372
f 365/382/365 364/383/364 370/389/370 371/388/371
f 364/383/364 363/384/363 369/390/369 370/389/370
f 363/384/363 362/385/362 368/391/368 369/390/369
f 362/385/362 361/216/361 367/205/367 368/391/368
f 21/387/21 372/386/372 378/392/378 23/393/23
f 372/386/372 371/388/371 377/394/377 378/392/378
f 371/388/371 370/389/370 376/395/376 377/394/377
f 370/389/370 369/390/369 375/396/375 376/395/376
f 369/390/369 368/391/368 374/397/374 375/396/375
f 368/391/368 367/205/367 373/194/373 374/397/374
f 23/393/23 378/392/378 384/398/384 25/399/25
f 378/392/378 377/394/377 383/400/383 384/398/384
f 377/394/377 376/395/376 382/401/382 383/400/383
f 376/395/376 375/396/375 381/402/381 382/401/382
f 375/396/375 374/397/374 380/403/380 381/402/381
f 374/397/374 373/194/373 379/183/379 380/403/380
f 25/399/25 384/398/384 390/404/390 27/405/27
f 384/398/384 383/400/383 389/406/389 390/404/390
f 383/400/383 382/401/382 388/407/388 389/406/389
f 382/401/382 381/402/381 387/408/387 388/407/388
f 381/402/381 380/403/380 386/409/386 387/408/387
f 380/403/380 379/183/379 385/172/385 386/409/386
f 27/405/27 390/404/390 396/410/396 29/411/29
f 390/404/390 389/406/389 395/412/395 396/410/396
f 389/406/389 388/407/388 394/413/394 395/412/395
f 388/407/388 387/408/387 393/414/393 394/413/394
f 387/408/387 386/409/386 392/415/392 393/414/393
f 386/409/386 385/172/385 391/161/391 392/415/392
f 29/411/29 396/410/396 402/416/402 31/417/31
f 396/410/396 395/412/395 401/418/401 402/416/402
f 395/412/395 394/413/394 400/419/400 401/418/401
f 394/413/394 393/414/393 399/420/399 400/419/400
f 393/414/393 392/415/392 398/421/398 399/420/399
f 392/415/392 391/161/391 397/150/397 398/421/398
f 31/417/31 402/416/402 408/422/408 33/423/33
f 402/416/402 401/418/401 407/424/407 408/422/408
f 401/418/401 400/419/400 406/425/406 407/424/407
f 400/419/400 399/420/399 405/426/405 406/425/406
f 399/420/399 398/421/398 404/427/404 405/426/405
f 398/421/398 397/150/397 403/139/403 404/427/404
f 33/423/33 408/422/408 414/428/414 35/429/35
f 408/422/408 407/424/407 413/430/413 414/428/414
f 407/424/407 406/425/406 412/431/412 413/430/413
f 406/425/406 405/426/405 411/432/411 412/431/412
f 405/426/405 404/427/404 410/433/410 411/432/411
f 404/427/404 403/139/403 409/128/409 410/433/410
f 35/429/35 414/428/414 420/434/420 37/435/37
f 414/428/414 413/430/413 419/436/419 420/434/420
f 413/430/413 412/431/412 418/437/418 419/436/419
f 412/431/412 411/432/411 417/438/417 418/437/418
f 411/432/411 410/433/410 416/439/416 417/438/417
f 410/433/410 409/128/409 415/117/415 416/439/416
f 37/435/37 420/434/420 426/440/426 39/441/39
f 420/434/420 419/436/419 425/442/425 426/440/426
f 419/436/419 418/437/418 424/443/424 425/442/425
f 418/437/418 417/438/417 423/444/423 424/443/424
f 417/438/417 416/439/416 422/445/422 423/444/423
f 416/439/416 415/117/415 421/106/421 422/445/422
f 39/441/39 426/440/426 432/446/432 41/447/41
f 426/440/426 425/442/425 431/448/431 432/446/432
f 425/442/425 424/443/424 430/449/430 431/448/431
f 424/443/424 423/444/423 429/450/429 430/449/430
f 423/444/423 422/445/422 428/451/428 429/450/429
f 422/445/422 421/106/421 427/95/427 428/451/428
f 41/447/41 432/446/432 438/452/438 43/453/43
f 432/446/432 431/448/431 437/454/437 438/452/438
f 431/448/431 430/449/430 436/455/436 437/454/437
f 430/449/430 429/450/429 435/456/435 436/455/436
f 429/450/429 428/451/428 434/457/434 435/456/435
f 428/451/428 427/95/427 433/84/433 434/457/434
f 43/453/43 438/452/438 444/458/444 45/459/45
f 438/452/438 437/454/437 443/460/443 444/458/444
f 437/454/437 436/455/436 442/461/442 443/460/443
f 436/455/436 435/456/435 441/462/441 442/461/442
f 435/456/435 434/457/434 440/463/440 441/462/441
f 434/457/434 433/84/433 439/73/439 440/463/440
f 45/459/45 444/458/444 450/464/450 47/465/47
f 444/458/444 443/460/443 449/466/449 450/464/450
f 443/460/443 442/461/442 448/467/448 449/466/449
f 442/461/442 441/462/441 447/468/447 448/467/448
f 441/462/441 440/463/440 446/469/446 447/468/447
f 440/463/440 439/73/439 445/51/445 446/469/446
f 47/465/47 450/464/450 451/470/451 1/471/1
f 450/464/450 449/466/449 452/472/452 451/470/451
f 449/466/449 448/467/448 453/473/453 452/472/452
f 448/467/448 447/468/447 454/474/454 453/473/453
f 447/468/447 446/469/446 455/475/455 454/474/454
f 446/469/446 445/51/445 456/54/456 455/475/455
